<?xml version="1.0" encoding="utf-8" standalone="no"?>
<!DOCTYPE svg PUBLIC "-//W3C//DTD SVG 1.1//EN"
  "http://www.w3.org/Graphics/SVG/1.1/DTD/svg11.dtd">
<!-- Created with matplotlib (http://matplotlib.org/) -->
<svg height="216pt" version="1.1" viewBox="0 0 360 216" width="360pt" xmlns="http://www.w3.org/2000/svg" xmlns:xlink="http://www.w3.org/1999/xlink">
 <defs>
  <style type="text/css">
*{stroke-linecap:butt;stroke-linejoin:round;stroke-miterlimit:100000;}
  </style>
 </defs>
 <g id="figure_1">
  <g id="patch_1">
   <path d="M 0 216 
L 360 216 
L 360 0 
L 0 0 
z
" style="fill:#ffffff;"/>
  </g>
  <g id="axes_1">
   <g id="patch_2">
    <path d="M 45 189 
L 324 189 
L 324 21.6 
L 45 21.6 
z
" style="fill:#ffffff;"/>
   </g>
   <g id="line2d_1">
    <defs>
     <path d="M 0 1 
C 0.265203 1 0.51958 0.894634 0.707107 0.707107 
C 0.894634 0.51958 1 0.265203 1 0 
C 1 -0.265203 0.894634 -0.51958 0.707107 -0.707107 
C 0.51958 -0.894634 0.265203 -1 0 -1 
C -0.265203 -1 -0.51958 -0.894634 -0.707107 -0.707107 
C -0.894634 -0.51958 -1 -0.265203 -1 0 
C -1 0.265203 -0.894634 0.51958 -0.707107 0.707107 
C -0.51958 0.894634 -0.265203 1 0 1 
z
" id="m944166144d" style="stroke:#000000;stroke-width:0.5;"/>
    </defs>
    <g>
     <use style="stroke:#000000;stroke-width:0.5;" x="72.9" xlink:href="#m944166144d" y="169.305882353"/>
     <use style="stroke:#000000;stroke-width:0.5;" x="89.3117647059" xlink:href="#m944166144d" y="165.367058824"/>
     <use style="stroke:#000000;stroke-width:0.5;" x="90.9529411765" xlink:href="#m944166144d" y="162.412941176"/>
     <use style="stroke:#000000;stroke-width:0.5;" x="92.5941176471" xlink:href="#m944166144d" y="157.489411765"/>
     <use style="stroke:#000000;stroke-width:0.5;" x="94.2352941176" xlink:href="#m944166144d" y="157.489411765"/>
     <use style="stroke:#000000;stroke-width:0.5;" x="110.647058824" xlink:href="#m944166144d" y="141.734117647"/>
     <use style="stroke:#000000;stroke-width:0.5;" x="125.417647059" xlink:href="#m944166144d" y="141.734117647"/>
     <use style="stroke:#000000;stroke-width:0.5;" x="112.288235294" xlink:href="#m944166144d" y="135.825882353"/>
     <use style="stroke:#000000;stroke-width:0.5;" x="120.494117647" xlink:href="#m944166144d" y="142.718823529"/>
     <use style="stroke:#000000;stroke-width:0.5;" x="135.264705882" xlink:href="#m944166144d" y="136.810588235"/>
     <use style="stroke:#000000;stroke-width:0.5;" x="140.188235294" xlink:href="#m944166144d" y="130.902352941"/>
     <use style="stroke:#000000;stroke-width:0.5;" x="143.470588235" xlink:href="#m944166144d" y="125.978823529"/>
     <use style="stroke:#000000;stroke-width:0.5;" x="127.058823529" xlink:href="#m944166144d" y="125.978823529"/>
     <use style="stroke:#000000;stroke-width:0.5;" x="130.341176471" xlink:href="#m944166144d" y="130.902352941"/>
     <use style="stroke:#000000;stroke-width:0.5;" x="141.829411765" xlink:href="#m944166144d" y="129.917647059"/>
     <use style="stroke:#000000;stroke-width:0.5;" x="143.470588235" xlink:href="#m944166144d" y="125.978823529"/>
     <use style="stroke:#000000;stroke-width:0.5;" x="136.905882353" xlink:href="#m944166144d" y="129.917647059"/>
     <use style="stroke:#000000;stroke-width:0.5;" x="141.829411765" xlink:href="#m944166144d" y="127.948235294"/>
     <use style="stroke:#000000;stroke-width:0.5;" x="145.111764706" xlink:href="#m944166144d" y="126.963529412"/>
     <use style="stroke:#000000;stroke-width:0.5;" x="145.111764706" xlink:href="#m944166144d" y="119.085882353"/>
     <use style="stroke:#000000;stroke-width:0.5;" x="153.317647059" xlink:href="#m944166144d" y="113.177647059"/>
     <use style="stroke:#000000;stroke-width:0.5;" x="148.394117647" xlink:href="#m944166144d" y="103.330588235"/>
     <use style="stroke:#000000;stroke-width:0.5;" x="141.829411765" xlink:href="#m944166144d" y="108.254117647"/>
     <use style="stroke:#000000;stroke-width:0.5;" x="151.676470588" xlink:href="#m944166144d" y="106.284705882"/>
     <use style="stroke:#000000;stroke-width:0.5;" x="158.241176471" xlink:href="#m944166144d" y="104.315294118"/>
     <use style="stroke:#000000;stroke-width:0.5;" x="161.523529412" xlink:href="#m944166144d" y="104.315294118"/>
     <use style="stroke:#000000;stroke-width:0.5;" x="156.6" xlink:href="#m944166144d" y="104.315294118"/>
     <use style="stroke:#000000;stroke-width:0.5;" x="169.729411765" xlink:href="#m944166144d" y="95.4529411765"/>
     <use style="stroke:#000000;stroke-width:0.5;" x="171.370588235" xlink:href="#m944166144d" y="98.4070588235"/>
     <use style="stroke:#000000;stroke-width:0.5;" x="153.317647059" xlink:href="#m944166144d" y="96.4376470588"/>
     <use style="stroke:#000000;stroke-width:0.5;" x="173.011764706" xlink:href="#m944166144d" y="83.6364705882"/>
     <use style="stroke:#000000;stroke-width:0.5;" x="181.217647059" xlink:href="#m944166144d" y="86.5905882353"/>
     <use style="stroke:#000000;stroke-width:0.5;" x="171.370588235" xlink:href="#m944166144d" y="91.5141176471"/>
     <use style="stroke:#000000;stroke-width:0.5;" x="176.294117647" xlink:href="#m944166144d" y="88.56"/>
     <use style="stroke:#000000;stroke-width:0.5;" x="184.5" xlink:href="#m944166144d" y="91.5141176471"/>
     <use style="stroke:#000000;stroke-width:0.5;" x="173.011764706" xlink:href="#m944166144d" y="91.5141176471"/>
     <use style="stroke:#000000;stroke-width:0.5;" x="179.576470588" xlink:href="#m944166144d" y="84.6211764706"/>
     <use style="stroke:#000000;stroke-width:0.5;" x="169.729411765" xlink:href="#m944166144d" y="89.5447058824"/>
     <use style="stroke:#000000;stroke-width:0.5;" x="171.370588235" xlink:href="#m944166144d" y="84.6211764706"/>
     <use style="stroke:#000000;stroke-width:0.5;" x="184.5" xlink:href="#m944166144d" y="79.6976470588"/>
     <use style="stroke:#000000;stroke-width:0.5;" x="186.141176471" xlink:href="#m944166144d" y="80.6823529412"/>
     <use style="stroke:#000000;stroke-width:0.5;" x="194.347058824" xlink:href="#m944166144d" y="72.8047058824"/>
     <use style="stroke:#000000;stroke-width:0.5;" x="187.782352941" xlink:href="#m944166144d" y="78.7129411765"/>
     <use style="stroke:#000000;stroke-width:0.5;" x="222.247058824" xlink:href="#m944166144d" y="62.9576470588"/>
     <use style="stroke:#000000;stroke-width:0.5;" x="184.5" xlink:href="#m944166144d" y="62.9576470588"/>
     <use style="stroke:#000000;stroke-width:0.5;" x="189.423529412" xlink:href="#m944166144d" y="72.8047058824"/>
     <use style="stroke:#000000;stroke-width:0.5;" x="214.041176471" xlink:href="#m944166144d" y="62.9576470588"/>
     <use style="stroke:#000000;stroke-width:0.5;" x="195.988235294" xlink:href="#m944166144d" y="55.08"/>
     <use style="stroke:#000000;stroke-width:0.5;" x="197.629411765" xlink:href="#m944166144d" y="58.0341176471"/>
     <use style="stroke:#000000;stroke-width:0.5;" x="220.605882353" xlink:href="#m944166144d" y="41.2941176471"/>
     <use style="stroke:#000000;stroke-width:0.5;" x="69.6176470588" xlink:href="#m944166144d" y="178.168235294"/>
     <use style="stroke:#000000;stroke-width:0.5;" x="102.441176471" xlink:href="#m944166144d" y="162.412941176"/>
     <use style="stroke:#000000;stroke-width:0.5;" x="95.8764705882" xlink:href="#m944166144d" y="162.412941176"/>
     <use style="stroke:#000000;stroke-width:0.5;" x="97.5176470588" xlink:href="#m944166144d" y="162.412941176"/>
     <use style="stroke:#000000;stroke-width:0.5;" x="97.5176470588" xlink:href="#m944166144d" y="161.428235294"/>
     <use style="stroke:#000000;stroke-width:0.5;" x="109.005882353" xlink:href="#m944166144d" y="151.581176471"/>
     <use style="stroke:#000000;stroke-width:0.5;" x="115.570588235" xlink:href="#m944166144d" y="155.52"/>
     <use style="stroke:#000000;stroke-width:0.5;" x="118.852941176" xlink:href="#m944166144d" y="150.596470588"/>
     <use style="stroke:#000000;stroke-width:0.5;" x="122.135294118" xlink:href="#m944166144d" y="156.504705882"/>
     <use style="stroke:#000000;stroke-width:0.5;" x="118.852941176" xlink:href="#m944166144d" y="148.627058824"/>
     <use style="stroke:#000000;stroke-width:0.5;" x="123.776470588" xlink:href="#m944166144d" y="157.489411765"/>
     <use style="stroke:#000000;stroke-width:0.5;" x="127.058823529" xlink:href="#m944166144d" y="145.672941176"/>
     <use style="stroke:#000000;stroke-width:0.5;" x="143.470588235" xlink:href="#m944166144d" y="138.78"/>
     <use style="stroke:#000000;stroke-width:0.5;" x="143.470588235" xlink:href="#m944166144d" y="135.825882353"/>
     <use style="stroke:#000000;stroke-width:0.5;" x="150.035294118" xlink:href="#m944166144d" y="139.764705882"/>
     <use style="stroke:#000000;stroke-width:0.5;" x="136.905882353" xlink:href="#m944166144d" y="135.825882353"/>
     <use style="stroke:#000000;stroke-width:0.5;" x="150.035294118" xlink:href="#m944166144d" y="130.902352941"/>
     <use style="stroke:#000000;stroke-width:0.5;" x="138.547058824" xlink:href="#m944166144d" y="134.841176471"/>
     <use style="stroke:#000000;stroke-width:0.5;" x="145.111764706" xlink:href="#m944166144d" y="129.917647059"/>
     <use style="stroke:#000000;stroke-width:0.5;" x="163.164705882" xlink:href="#m944166144d" y="127.948235294"/>
     <use style="stroke:#000000;stroke-width:0.5;" x="154.958823529" xlink:href="#m944166144d" y="121.055294118"/>
     <use style="stroke:#000000;stroke-width:0.5;" x="163.164705882" xlink:href="#m944166144d" y="128.932941176"/>
     <use style="stroke:#000000;stroke-width:0.5;" x="163.164705882" xlink:href="#m944166144d" y="124.994117647"/>
     <use style="stroke:#000000;stroke-width:0.5;" x="150.035294118" xlink:href="#m944166144d" y="126.963529412"/>
     <use style="stroke:#000000;stroke-width:0.5;" x="151.676470588" xlink:href="#m944166144d" y="128.932941176"/>
     <use style="stroke:#000000;stroke-width:0.5;" x="163.164705882" xlink:href="#m944166144d" y="124.994117647"/>
     <use style="stroke:#000000;stroke-width:0.5;" x="156.6" xlink:href="#m944166144d" y="123.024705882"/>
     <use style="stroke:#000000;stroke-width:0.5;" x="168.088235294" xlink:href="#m944166144d" y="121.055294118"/>
     <use style="stroke:#000000;stroke-width:0.5;" x="176.294117647" xlink:href="#m944166144d" y="109.238823529"/>
     <use style="stroke:#000000;stroke-width:0.5;" x="168.088235294" xlink:href="#m944166144d" y="115.147058824"/>
     <use style="stroke:#000000;stroke-width:0.5;" x="179.576470588" xlink:href="#m944166144d" y="120.070588235"/>
     <use style="stroke:#000000;stroke-width:0.5;" x="189.423529412" xlink:href="#m944166144d" y="100.376470588"/>
     <use style="stroke:#000000;stroke-width:0.5;" x="195.988235294" xlink:href="#m944166144d" y="100.376470588"/>
     <use style="stroke:#000000;stroke-width:0.5;" x="181.217647059" xlink:href="#m944166144d" y="105.3"/>
     <use style="stroke:#000000;stroke-width:0.5;" x="184.5" xlink:href="#m944166144d" y="102.345882353"/>
     <use style="stroke:#000000;stroke-width:0.5;" x="189.423529412" xlink:href="#m944166144d" y="110.223529412"/>
     <use style="stroke:#000000;stroke-width:0.5;" x="197.629411765" xlink:href="#m944166144d" y="93.4835294118"/>
     <use style="stroke:#000000;stroke-width:0.5;" x="195.988235294" xlink:href="#m944166144d" y="102.345882353"/>
     <use style="stroke:#000000;stroke-width:0.5;" x="181.217647059" xlink:href="#m944166144d" y="102.345882353"/>
     <use style="stroke:#000000;stroke-width:0.5;" x="189.423529412" xlink:href="#m944166144d" y="93.4835294118"/>
     <use style="stroke:#000000;stroke-width:0.5;" x="191.064705882" xlink:href="#m944166144d" y="106.284705882"/>
     <use style="stroke:#000000;stroke-width:0.5;" x="204.194117647" xlink:href="#m944166144d" y="97.4223529412"/>
     <use style="stroke:#000000;stroke-width:0.5;" x="191.064705882" xlink:href="#m944166144d" y="99.3917647059"/>
     <use style="stroke:#000000;stroke-width:0.5;" x="209.117647059" xlink:href="#m944166144d" y="87.5752941176"/>
     <use style="stroke:#000000;stroke-width:0.5;" x="212.4" xlink:href="#m944166144d" y="101.361176471"/>
     <use style="stroke:#000000;stroke-width:0.5;" x="192.705882353" xlink:href="#m944166144d" y="88.56"/>
     <use style="stroke:#000000;stroke-width:0.5;" x="227.170588235" xlink:href="#m944166144d" y="86.5905882353"/>
     <use style="stroke:#000000;stroke-width:0.5;" x="240.3" xlink:href="#m944166144d" y="74.7741176471"/>
     <use style="stroke:#000000;stroke-width:0.5;" x="237.017647059" xlink:href="#m944166144d" y="70.8352941176"/>
     <use style="stroke:#000000;stroke-width:0.5;" x="233.735294118" xlink:href="#m944166144d" y="60.0035294118"/>
     <use style="stroke:#000000;stroke-width:0.5;" x="76.1823529412" xlink:href="#m944166144d" y="165.367058824"/>
     <use style="stroke:#000000;stroke-width:0.5;" x="97.5176470588" xlink:href="#m944166144d" y="149.611764706"/>
     <use style="stroke:#000000;stroke-width:0.5;" x="104.082352941" xlink:href="#m944166144d" y="147.642352941"/>
     <use style="stroke:#000000;stroke-width:0.5;" x="110.647058824" xlink:href="#m944166144d" y="138.78"/>
     <use style="stroke:#000000;stroke-width:0.5;" x="117.211764706" xlink:href="#m944166144d" y="131.887058824"/>
     <use style="stroke:#000000;stroke-width:0.5;" x="117.211764706" xlink:href="#m944166144d" y="127.948235294"/>
     <use style="stroke:#000000;stroke-width:0.5;" x="133.623529412" xlink:href="#m944166144d" y="119.085882353"/>
     <use style="stroke:#000000;stroke-width:0.5;" x="143.470588235" xlink:href="#m944166144d" y="118.101176471"/>
     <use style="stroke:#000000;stroke-width:0.5;" x="128.7" xlink:href="#m944166144d" y="120.070588235"/>
     <use style="stroke:#000000;stroke-width:0.5;" x="143.470588235" xlink:href="#m944166144d" y="118.101176471"/>
     <use style="stroke:#000000;stroke-width:0.5;" x="151.676470588" xlink:href="#m944166144d" y="109.238823529"/>
     <use style="stroke:#000000;stroke-width:0.5;" x="133.623529412" xlink:href="#m944166144d" y="105.3"/>
     <use style="stroke:#000000;stroke-width:0.5;" x="135.264705882" xlink:href="#m944166144d" y="109.238823529"/>
     <use style="stroke:#000000;stroke-width:0.5;" x="138.547058824" xlink:href="#m944166144d" y="107.269411765"/>
     <use style="stroke:#000000;stroke-width:0.5;" x="136.905882353" xlink:href="#m944166144d" y="111.208235294"/>
     <use style="stroke:#000000;stroke-width:0.5;" x="138.547058824" xlink:href="#m944166144d" y="113.177647059"/>
     <use style="stroke:#000000;stroke-width:0.5;" x="148.394117647" xlink:href="#m944166144d" y="105.3"/>
     <use style="stroke:#000000;stroke-width:0.5;" x="148.394117647" xlink:href="#m944166144d" y="112.192941176"/>
     <use style="stroke:#000000;stroke-width:0.5;" x="145.111764706" xlink:href="#m944166144d" y="109.238823529"/>
     <use style="stroke:#000000;stroke-width:0.5;" x="150.035294118" xlink:href="#m944166144d" y="100.376470588"/>
     <use style="stroke:#000000;stroke-width:0.5;" x="151.676470588" xlink:href="#m944166144d" y="101.361176471"/>
     <use style="stroke:#000000;stroke-width:0.5;" x="145.111764706" xlink:href="#m944166144d" y="105.3"/>
     <use style="stroke:#000000;stroke-width:0.5;" x="163.164705882" xlink:href="#m944166144d" y="98.4070588235"/>
     <use style="stroke:#000000;stroke-width:0.5;" x="156.6" xlink:href="#m944166144d" y="93.4835294118"/>
     <use style="stroke:#000000;stroke-width:0.5;" x="153.317647059" xlink:href="#m944166144d" y="95.4529411765"/>
     <use style="stroke:#000000;stroke-width:0.5;" x="169.729411765" xlink:href="#m944166144d" y="83.6364705882"/>
     <use style="stroke:#000000;stroke-width:0.5;" x="173.011764706" xlink:href="#m944166144d" y="78.7129411765"/>
     <use style="stroke:#000000;stroke-width:0.5;" x="159.882352941" xlink:href="#m944166144d" y="87.5752941176"/>
     <use style="stroke:#000000;stroke-width:0.5;" x="171.370588235" xlink:href="#m944166144d" y="79.6976470588"/>
     <use style="stroke:#000000;stroke-width:0.5;" x="168.088235294" xlink:href="#m944166144d" y="73.7894117647"/>
     <use style="stroke:#000000;stroke-width:0.5;" x="174.652941176" xlink:href="#m944166144d" y="75.7588235294"/>
     <use style="stroke:#000000;stroke-width:0.5;" x="182.858823529" xlink:href="#m944166144d" y="69.8505882353"/>
     <use style="stroke:#000000;stroke-width:0.5;" x="187.782352941" xlink:href="#m944166144d" y="68.8658823529"/>
     <use style="stroke:#000000;stroke-width:0.5;" x="182.858823529" xlink:href="#m944166144d" y="63.9423529412"/>
     <use style="stroke:#000000;stroke-width:0.5;" x="182.858823529" xlink:href="#m944166144d" y="67.8811764706"/>
     <use style="stroke:#000000;stroke-width:0.5;" x="184.5" xlink:href="#m944166144d" y="70.8352941176"/>
     <use style="stroke:#000000;stroke-width:0.5;" x="182.858823529" xlink:href="#m944166144d" y="65.9117647059"/>
     <use style="stroke:#000000;stroke-width:0.5;" x="189.423529412" xlink:href="#m944166144d" y="61.9729411765"/>
     <use style="stroke:#000000;stroke-width:0.5;" x="194.347058824" xlink:href="#m944166144d" y="62.9576470588"/>
     <use style="stroke:#000000;stroke-width:0.5;" x="199.270588235" xlink:href="#m944166144d" y="61.9729411765"/>
     <use style="stroke:#000000;stroke-width:0.5;" x="187.782352941" xlink:href="#m944166144d" y="60.9882352941"/>
     <use style="stroke:#000000;stroke-width:0.5;" x="199.270588235" xlink:href="#m944166144d" y="45.2329411765"/>
     <use style="stroke:#000000;stroke-width:0.5;" x="209.117647059" xlink:href="#m944166144d" y="47.2023529412"/>
     <use style="stroke:#000000;stroke-width:0.5;" x="217.323529412" xlink:href="#m944166144d" y="32.4317647059"/>
     <use style="stroke:#000000;stroke-width:0.5;" x="215.682352941" xlink:href="#m944166144d" y="35.3858823529"/>
     <use style="stroke:#000000;stroke-width:0.5;" x="205.835294118" xlink:href="#m944166144d" y="40.3094117647"/>
     <use style="stroke:#000000;stroke-width:0.5;" x="220.605882353" xlink:href="#m944166144d" y="30.4623529412"/>
     <use style="stroke:#000000;stroke-width:0.5;" x="222.247058824" xlink:href="#m944166144d" y="36.3705882353"/>
     <use style="stroke:#000000;stroke-width:0.5;" x="238.658823529" xlink:href="#m944166144d" y="26.5235294118"/>
     <use style="stroke:#000000;stroke-width:0.5;" x="220.605882353" xlink:href="#m944166144d" y="25.5388235294"/>
     <use style="stroke:#000000;stroke-width:0.5;" x="122.135294118" xlink:href="#m944166144d" y="141.734117647"/>
     <use style="stroke:#000000;stroke-width:0.5;" x="113.929411765" xlink:href="#m944166144d" y="142.718823529"/>
     <use style="stroke:#000000;stroke-width:0.5;" x="127.058823529" xlink:href="#m944166144d" y="130.902352941"/>
     <use style="stroke:#000000;stroke-width:0.5;" x="151.676470588" xlink:href="#m944166144d" y="124.994117647"/>
     <use style="stroke:#000000;stroke-width:0.5;" x="146.752941176" xlink:href="#m944166144d" y="121.055294118"/>
     <use style="stroke:#000000;stroke-width:0.5;" x="158.241176471" xlink:href="#m944166144d" y="114.162352941"/>
     <use style="stroke:#000000;stroke-width:0.5;" x="173.011764706" xlink:href="#m944166144d" y="113.177647059"/>
     <use style="stroke:#000000;stroke-width:0.5;" x="163.164705882" xlink:href="#m944166144d" y="115.147058824"/>
     <use style="stroke:#000000;stroke-width:0.5;" x="179.576470588" xlink:href="#m944166144d" y="111.208235294"/>
     <use style="stroke:#000000;stroke-width:0.5;" x="176.294117647" xlink:href="#m944166144d" y="107.269411765"/>
     <use style="stroke:#000000;stroke-width:0.5;" x="164.805882353" xlink:href="#m944166144d" y="100.376470588"/>
     <use style="stroke:#000000;stroke-width:0.5;" x="184.5" xlink:href="#m944166144d" y="99.3917647059"/>
     <use style="stroke:#000000;stroke-width:0.5;" x="192.705882353" xlink:href="#m944166144d" y="102.345882353"/>
     <use style="stroke:#000000;stroke-width:0.5;" x="194.347058824" xlink:href="#m944166144d" y="102.345882353"/>
     <use style="stroke:#000000;stroke-width:0.5;" x="186.141176471" xlink:href="#m944166144d" y="102.345882353"/>
     <use style="stroke:#000000;stroke-width:0.5;" x="186.141176471" xlink:href="#m944166144d" y="100.376470588"/>
     <use style="stroke:#000000;stroke-width:0.5;" x="187.782352941" xlink:href="#m944166144d" y="101.361176471"/>
     <use style="stroke:#000000;stroke-width:0.5;" x="192.705882353" xlink:href="#m944166144d" y="103.330588235"/>
     <use style="stroke:#000000;stroke-width:0.5;" x="197.629411765" xlink:href="#m944166144d" y="93.4835294118"/>
     <use style="stroke:#000000;stroke-width:0.5;" x="200.911764706" xlink:href="#m944166144d" y="94.4682352941"/>
     <use style="stroke:#000000;stroke-width:0.5;" x="197.629411765" xlink:href="#m944166144d" y="84.6211764706"/>
     <use style="stroke:#000000;stroke-width:0.5;" x="199.270588235" xlink:href="#m944166144d" y="80.6823529412"/>
     <use style="stroke:#000000;stroke-width:0.5;" x="204.194117647" xlink:href="#m944166144d" y="94.4682352941"/>
     <use style="stroke:#000000;stroke-width:0.5;" x="192.705882353" xlink:href="#m944166144d" y="85.6058823529"/>
     <use style="stroke:#000000;stroke-width:0.5;" x="207.476470588" xlink:href="#m944166144d" y="83.6364705882"/>
     <use style="stroke:#000000;stroke-width:0.5;" x="230.452941176" xlink:href="#m944166144d" y="68.8658823529"/>
     <use style="stroke:#000000;stroke-width:0.5;" x="220.605882353" xlink:href="#m944166144d" y="79.6976470588"/>
     <use style="stroke:#000000;stroke-width:0.5;" x="217.323529412" xlink:href="#m944166144d" y="81.6670588235"/>
     <use style="stroke:#000000;stroke-width:0.5;" x="220.605882353" xlink:href="#m944166144d" y="76.7435294118"/>
     <use style="stroke:#000000;stroke-width:0.5;" x="202.552941176" xlink:href="#m944166144d" y="74.7741176471"/>
     <use style="stroke:#000000;stroke-width:0.5;" x="200.911764706" xlink:href="#m944166144d" y="90.5294117647"/>
     <use style="stroke:#000000;stroke-width:0.5;" x="212.4" xlink:href="#m944166144d" y="74.7741176471"/>
     <use style="stroke:#000000;stroke-width:0.5;" x="237.017647059" xlink:href="#m944166144d" y="87.5752941176"/>
     <use style="stroke:#000000;stroke-width:0.5;" x="225.529411765" xlink:href="#m944166144d" y="72.8047058824"/>
     <use style="stroke:#000000;stroke-width:0.5;" x="230.452941176" xlink:href="#m944166144d" y="68.8658823529"/>
     <use style="stroke:#000000;stroke-width:0.5;" x="237.017647059" xlink:href="#m944166144d" y="59.0188235294"/>
     <use style="stroke:#000000;stroke-width:0.5;" x="235.376470588" xlink:href="#m944166144d" y="61.9729411765"/>
     <use style="stroke:#000000;stroke-width:0.5;" x="256.711764706" xlink:href="#m944166144d" y="61.9729411765"/>
     <use style="stroke:#000000;stroke-width:0.5;" x="237.017647059" xlink:href="#m944166144d" y="63.9423529412"/>
     <use style="stroke:#000000;stroke-width:0.5;" x="245.223529412" xlink:href="#m944166144d" y="55.08"/>
     <use style="stroke:#000000;stroke-width:0.5;" x="225.529411765" xlink:href="#m944166144d" y="60.9882352941"/>
     <use style="stroke:#000000;stroke-width:0.5;" x="250.147058824" xlink:href="#m944166144d" y="49.1717647059"/>
     <use style="stroke:#000000;stroke-width:0.5;" x="250.147058824" xlink:href="#m944166144d" y="49.1717647059"/>
     <use style="stroke:#000000;stroke-width:0.5;" x="233.735294118" xlink:href="#m944166144d" y="65.9117647059"/>
     <use style="stroke:#000000;stroke-width:0.5;" x="264.917647059" xlink:href="#m944166144d" y="41.2941176471"/>
     <use style="stroke:#000000;stroke-width:0.5;" x="258.352941176" xlink:href="#m944166144d" y="54.0952941176"/>
     <use style="stroke:#000000;stroke-width:0.5;" x="243.582352941" xlink:href="#m944166144d" y="45.2329411765"/>
     <use style="stroke:#000000;stroke-width:0.5;" x="245.223529412" xlink:href="#m944166144d" y="46.2176470588"/>
     <use style="stroke:#000000;stroke-width:0.5;" x="245.223529412" xlink:href="#m944166144d" y="43.2635294118"/>
     <use style="stroke:#000000;stroke-width:0.5;" x="294.458823529" xlink:href="#m944166144d" y="30.4623529412"/>
    </g>
   </g>
   <g id="patch_3">
    <path d="M 45 189 
L 45 21.6 
" style="fill:none;stroke:#000000;stroke-linecap:square;stroke-linejoin:miter;stroke-width:0.5;"/>
   </g>
   <g id="patch_4">
    <path d="M 45 189 
L 324 189 
" style="fill:none;stroke:#000000;stroke-linecap:square;stroke-linejoin:miter;stroke-width:0.5;"/>
   </g>
   <g id="matplotlib.axis_1">
    <g id="xtick_1">
     <g id="line2d_2">
      <defs>
       <path d="M 0 0 
L 0 -5 
" id="m99fc3e987a" style="stroke:#000000;stroke-width:0.5;"/>
      </defs>
      <g>
       <use style="stroke:#000000;stroke-width:0.5;" x="61.4117647059" xlink:href="#m99fc3e987a" y="189.0"/>
      </g>
     </g>
     <g id="text_1">
      <!-- 6 -->
      <defs>
       <path d="M 33.015625 40.375 
Q 26.375 40.375 22.484375 35.828125 
Q 18.609375 31.296875 18.609375 23.390625 
Q 18.609375 15.53125 22.484375 10.953125 
Q 26.375 6.390625 33.015625 6.390625 
Q 39.65625 6.390625 43.53125 10.953125 
Q 47.40625 15.53125 47.40625 23.390625 
Q 47.40625 31.296875 43.53125 35.828125 
Q 39.65625 40.375 33.015625 40.375 
M 52.59375 71.296875 
L 52.59375 62.3125 
Q 48.875 64.0625 45.09375 64.984375 
Q 41.3125 65.921875 37.59375 65.921875 
Q 27.828125 65.921875 22.671875 59.328125 
Q 17.53125 52.734375 16.796875 39.40625 
Q 19.671875 43.65625 24.015625 45.921875 
Q 28.375 48.1875 33.59375 48.1875 
Q 44.578125 48.1875 50.953125 41.515625 
Q 57.328125 34.859375 57.328125 23.390625 
Q 57.328125 12.15625 50.6875 5.359375 
Q 44.046875 -1.421875 33.015625 -1.421875 
Q 20.359375 -1.421875 13.671875 8.265625 
Q 6.984375 17.96875 6.984375 36.375 
Q 6.984375 53.65625 15.1875 63.9375 
Q 23.390625 74.21875 37.203125 74.21875 
Q 40.921875 74.21875 44.703125 73.484375 
Q 48.484375 72.75 52.59375 71.296875 
" id="BitstreamVeraSans-Roman-36"/>
      </defs>
      <g transform="translate(59.1848897059 198.31890625)scale(0.07 -0.07)">
       <use xlink:href="#BitstreamVeraSans-Roman-36"/>
      </g>
     </g>
    </g>
    <g id="xtick_2">
     <g id="line2d_3">
      <g>
       <use style="stroke:#000000;stroke-width:0.5;" x="94.2352941176" xlink:href="#m99fc3e987a" y="189.0"/>
      </g>
     </g>
     <g id="text_2">
      <!-- 8 -->
      <defs>
       <path d="M 31.78125 34.625 
Q 24.75 34.625 20.71875 30.859375 
Q 16.703125 27.09375 16.703125 20.515625 
Q 16.703125 13.921875 20.71875 10.15625 
Q 24.75 6.390625 31.78125 6.390625 
Q 38.8125 6.390625 42.859375 10.171875 
Q 46.921875 13.96875 46.921875 20.515625 
Q 46.921875 27.09375 42.890625 30.859375 
Q 38.875 34.625 31.78125 34.625 
M 21.921875 38.8125 
Q 15.578125 40.375 12.03125 44.71875 
Q 8.5 49.078125 8.5 55.328125 
Q 8.5 64.0625 14.71875 69.140625 
Q 20.953125 74.21875 31.78125 74.21875 
Q 42.671875 74.21875 48.875 69.140625 
Q 55.078125 64.0625 55.078125 55.328125 
Q 55.078125 49.078125 51.53125 44.71875 
Q 48 40.375 41.703125 38.8125 
Q 48.828125 37.15625 52.796875 32.3125 
Q 56.78125 27.484375 56.78125 20.515625 
Q 56.78125 9.90625 50.3125 4.234375 
Q 43.84375 -1.421875 31.78125 -1.421875 
Q 19.734375 -1.421875 13.25 4.234375 
Q 6.78125 9.90625 6.78125 20.515625 
Q 6.78125 27.484375 10.78125 32.3125 
Q 14.796875 37.15625 21.921875 38.8125 
M 18.3125 54.390625 
Q 18.3125 48.734375 21.84375 45.5625 
Q 25.390625 42.390625 31.78125 42.390625 
Q 38.140625 42.390625 41.71875 45.5625 
Q 45.3125 48.734375 45.3125 54.390625 
Q 45.3125 60.0625 41.71875 63.234375 
Q 38.140625 66.40625 31.78125 66.40625 
Q 25.390625 66.40625 21.84375 63.234375 
Q 18.3125 60.0625 18.3125 54.390625 
" id="BitstreamVeraSans-Roman-38"/>
      </defs>
      <g transform="translate(92.0084191176 198.31890625)scale(0.07 -0.07)">
       <use xlink:href="#BitstreamVeraSans-Roman-38"/>
      </g>
     </g>
    </g>
    <g id="xtick_3">
     <g id="line2d_4">
      <g>
       <use style="stroke:#000000;stroke-width:0.5;" x="127.058823529" xlink:href="#m99fc3e987a" y="189.0"/>
      </g>
     </g>
     <g id="text_3">
      <!-- 10 -->
      <defs>
       <path d="M 12.40625 8.296875 
L 28.515625 8.296875 
L 28.515625 63.921875 
L 10.984375 60.40625 
L 10.984375 69.390625 
L 28.421875 72.90625 
L 38.28125 72.90625 
L 38.28125 8.296875 
L 54.390625 8.296875 
L 54.390625 0 
L 12.40625 0 
z
" id="BitstreamVeraSans-Roman-31"/>
       <path d="M 31.78125 66.40625 
Q 24.171875 66.40625 20.328125 58.90625 
Q 16.5 51.421875 16.5 36.375 
Q 16.5 21.390625 20.328125 13.890625 
Q 24.171875 6.390625 31.78125 6.390625 
Q 39.453125 6.390625 43.28125 13.890625 
Q 47.125 21.390625 47.125 36.375 
Q 47.125 51.421875 43.28125 58.90625 
Q 39.453125 66.40625 31.78125 66.40625 
M 31.78125 74.21875 
Q 44.046875 74.21875 50.515625 64.515625 
Q 56.984375 54.828125 56.984375 36.375 
Q 56.984375 17.96875 50.515625 8.265625 
Q 44.046875 -1.421875 31.78125 -1.421875 
Q 19.53125 -1.421875 13.0625 8.265625 
Q 6.59375 17.96875 6.59375 36.375 
Q 6.59375 54.828125 13.0625 64.515625 
Q 19.53125 74.21875 31.78125 74.21875 
" id="BitstreamVeraSans-Roman-30"/>
      </defs>
      <g transform="translate(122.605073529 198.31890625)scale(0.07 -0.07)">
       <use xlink:href="#BitstreamVeraSans-Roman-31"/>
       <use x="63.623046875" xlink:href="#BitstreamVeraSans-Roman-30"/>
      </g>
     </g>
    </g>
    <g id="xtick_4">
     <g id="line2d_5">
      <g>
       <use style="stroke:#000000;stroke-width:0.5;" x="159.882352941" xlink:href="#m99fc3e987a" y="189.0"/>
      </g>
     </g>
     <g id="text_4">
      <!-- 12 -->
      <defs>
       <path d="M 19.1875 8.296875 
L 53.609375 8.296875 
L 53.609375 0 
L 7.328125 0 
L 7.328125 8.296875 
Q 12.9375 14.109375 22.625 23.890625 
Q 32.328125 33.6875 34.8125 36.53125 
Q 39.546875 41.84375 41.421875 45.53125 
Q 43.3125 49.21875 43.3125 52.78125 
Q 43.3125 58.59375 39.234375 62.25 
Q 35.15625 65.921875 28.609375 65.921875 
Q 23.96875 65.921875 18.8125 64.3125 
Q 13.671875 62.703125 7.8125 59.421875 
L 7.8125 69.390625 
Q 13.765625 71.78125 18.9375 73 
Q 24.125 74.21875 28.421875 74.21875 
Q 39.75 74.21875 46.484375 68.546875 
Q 53.21875 62.890625 53.21875 53.421875 
Q 53.21875 48.921875 51.53125 44.890625 
Q 49.859375 40.875 45.40625 35.40625 
Q 44.1875 33.984375 37.640625 27.21875 
Q 31.109375 20.453125 19.1875 8.296875 
" id="BitstreamVeraSans-Roman-32"/>
      </defs>
      <g transform="translate(155.428602941 198.31890625)scale(0.07 -0.07)">
       <use xlink:href="#BitstreamVeraSans-Roman-31"/>
       <use x="63.623046875" xlink:href="#BitstreamVeraSans-Roman-32"/>
      </g>
     </g>
    </g>
    <g id="xtick_5">
     <g id="line2d_6">
      <g>
       <use style="stroke:#000000;stroke-width:0.5;" x="192.705882353" xlink:href="#m99fc3e987a" y="189.0"/>
      </g>
     </g>
     <g id="text_5">
      <!-- 14 -->
      <defs>
       <path d="M 37.796875 64.3125 
L 12.890625 25.390625 
L 37.796875 25.390625 
z
M 35.203125 72.90625 
L 47.609375 72.90625 
L 47.609375 25.390625 
L 58.015625 25.390625 
L 58.015625 17.1875 
L 47.609375 17.1875 
L 47.609375 0 
L 37.796875 0 
L 37.796875 17.1875 
L 4.890625 17.1875 
L 4.890625 26.703125 
z
" id="BitstreamVeraSans-Roman-34"/>
      </defs>
      <g transform="translate(188.252132353 198.31890625)scale(0.07 -0.07)">
       <use xlink:href="#BitstreamVeraSans-Roman-31"/>
       <use x="63.623046875" xlink:href="#BitstreamVeraSans-Roman-34"/>
      </g>
     </g>
    </g>
    <g id="xtick_6">
     <g id="line2d_7">
      <g>
       <use style="stroke:#000000;stroke-width:0.5;" x="225.529411765" xlink:href="#m99fc3e987a" y="189.0"/>
      </g>
     </g>
     <g id="text_6">
      <!-- 16 -->
      <g transform="translate(221.075661765 198.31890625)scale(0.07 -0.07)">
       <use xlink:href="#BitstreamVeraSans-Roman-31"/>
       <use x="63.623046875" xlink:href="#BitstreamVeraSans-Roman-36"/>
      </g>
     </g>
    </g>
    <g id="xtick_7">
     <g id="line2d_8">
      <g>
       <use style="stroke:#000000;stroke-width:0.5;" x="258.352941176" xlink:href="#m99fc3e987a" y="189.0"/>
      </g>
     </g>
     <g id="text_7">
      <!-- 18 -->
      <g transform="translate(253.899191176 198.31890625)scale(0.07 -0.07)">
       <use xlink:href="#BitstreamVeraSans-Roman-31"/>
       <use x="63.623046875" xlink:href="#BitstreamVeraSans-Roman-38"/>
      </g>
     </g>
    </g>
    <g id="xtick_8">
     <g id="line2d_9">
      <g>
       <use style="stroke:#000000;stroke-width:0.5;" x="291.176470588" xlink:href="#m99fc3e987a" y="189.0"/>
      </g>
     </g>
     <g id="text_8">
      <!-- 20 -->
      <g transform="translate(286.722720588 198.31890625)scale(0.07 -0.07)">
       <use xlink:href="#BitstreamVeraSans-Roman-32"/>
       <use x="63.623046875" xlink:href="#BitstreamVeraSans-Roman-30"/>
      </g>
     </g>
    </g>
    <g id="xtick_9">
     <g id="line2d_10">
      <g>
       <use style="stroke:#000000;stroke-width:0.5;" x="324.0" xlink:href="#m99fc3e987a" y="189.0"/>
      </g>
     </g>
     <g id="text_9">
      <!-- 22 -->
      <g transform="translate(319.54625 198.31890625)scale(0.07 -0.07)">
       <use xlink:href="#BitstreamVeraSans-Roman-32"/>
       <use x="63.623046875" xlink:href="#BitstreamVeraSans-Roman-32"/>
      </g>
     </g>
    </g>
    <g id="text_10">
     <!-- Rear Width (mm) -->
     <defs>
      <path d="M 8.015625 75.875 
L 15.828125 75.875 
Q 23.140625 64.359375 26.78125 53.3125 
Q 30.421875 42.28125 30.421875 31.390625 
Q 30.421875 20.453125 26.78125 9.375 
Q 23.140625 -1.703125 15.828125 -13.1875 
L 8.015625 -13.1875 
Q 14.5 -2 17.703125 9.0625 
Q 20.90625 20.125 20.90625 31.390625 
Q 20.90625 42.671875 17.703125 53.65625 
Q 14.5 64.65625 8.015625 75.875 
" id="BitstreamVeraSans-Roman-29"/>
      <path d="M 44.390625 34.1875 
Q 47.5625 33.109375 50.5625 29.59375 
Q 53.5625 26.078125 56.59375 19.921875 
L 66.609375 0 
L 56 0 
L 46.6875 18.703125 
Q 43.0625 26.03125 39.671875 28.421875 
Q 36.28125 30.8125 30.421875 30.8125 
L 19.671875 30.8125 
L 19.671875 0 
L 9.8125 0 
L 9.8125 72.90625 
L 32.078125 72.90625 
Q 44.578125 72.90625 50.734375 67.671875 
Q 56.890625 62.453125 56.890625 51.90625 
Q 56.890625 45.015625 53.6875 40.46875 
Q 50.484375 35.9375 44.390625 34.1875 
M 19.671875 64.796875 
L 19.671875 38.921875 
L 32.078125 38.921875 
Q 39.203125 38.921875 42.84375 42.21875 
Q 46.484375 45.515625 46.484375 51.90625 
Q 46.484375 58.296875 42.84375 61.546875 
Q 39.203125 64.796875 32.078125 64.796875 
z
" id="BitstreamVeraSans-Roman-52"/>
      <path d="M 34.28125 27.484375 
Q 23.390625 27.484375 19.1875 25 
Q 14.984375 22.515625 14.984375 16.5 
Q 14.984375 11.71875 18.140625 8.90625 
Q 21.296875 6.109375 26.703125 6.109375 
Q 34.1875 6.109375 38.703125 11.40625 
Q 43.21875 16.703125 43.21875 25.484375 
L 43.21875 27.484375 
z
M 52.203125 31.203125 
L 52.203125 0 
L 43.21875 0 
L 43.21875 8.296875 
Q 40.140625 3.328125 35.546875 0.953125 
Q 30.953125 -1.421875 24.3125 -1.421875 
Q 15.921875 -1.421875 10.953125 3.296875 
Q 6 8.015625 6 15.921875 
Q 6 25.140625 12.171875 29.828125 
Q 18.359375 34.515625 30.609375 34.515625 
L 43.21875 34.515625 
L 43.21875 35.40625 
Q 43.21875 41.609375 39.140625 45 
Q 35.0625 48.390625 27.6875 48.390625 
Q 23 48.390625 18.546875 47.265625 
Q 14.109375 46.140625 10.015625 43.890625 
L 10.015625 52.203125 
Q 14.9375 54.109375 19.578125 55.046875 
Q 24.21875 56 28.609375 56 
Q 40.484375 56 46.34375 49.84375 
Q 52.203125 43.703125 52.203125 31.203125 
" id="BitstreamVeraSans-Roman-61"/>
      <path d="M 41.109375 46.296875 
Q 39.59375 47.171875 37.8125 47.578125 
Q 36.03125 48 33.890625 48 
Q 26.265625 48 22.1875 43.046875 
Q 18.109375 38.09375 18.109375 28.8125 
L 18.109375 0 
L 9.078125 0 
L 9.078125 54.6875 
L 18.109375 54.6875 
L 18.109375 46.1875 
Q 20.953125 51.171875 25.484375 53.578125 
Q 30.03125 56 36.53125 56 
Q 37.453125 56 38.578125 55.875 
Q 39.703125 55.765625 41.0625 55.515625 
z
" id="BitstreamVeraSans-Roman-72"/>
      <path d="M 54.890625 33.015625 
L 54.890625 0 
L 45.90625 0 
L 45.90625 32.71875 
Q 45.90625 40.484375 42.875 44.328125 
Q 39.84375 48.1875 33.796875 48.1875 
Q 26.515625 48.1875 22.3125 43.546875 
Q 18.109375 38.921875 18.109375 30.90625 
L 18.109375 0 
L 9.078125 0 
L 9.078125 75.984375 
L 18.109375 75.984375 
L 18.109375 46.1875 
Q 21.34375 51.125 25.703125 53.5625 
Q 30.078125 56 35.796875 56 
Q 45.21875 56 50.046875 50.171875 
Q 54.890625 44.34375 54.890625 33.015625 
" id="BitstreamVeraSans-Roman-68"/>
      <path d="M 31 75.875 
Q 24.46875 64.65625 21.28125 53.65625 
Q 18.109375 42.671875 18.109375 31.390625 
Q 18.109375 20.125 21.3125 9.0625 
Q 24.515625 -2 31 -13.1875 
L 23.1875 -13.1875 
Q 15.875 -1.703125 12.234375 9.375 
Q 8.59375 20.453125 8.59375 31.390625 
Q 8.59375 42.28125 12.203125 53.3125 
Q 15.828125 64.359375 23.1875 75.875 
z
" id="BitstreamVeraSans-Roman-28"/>
      <path d="M 18.3125 70.21875 
L 18.3125 54.6875 
L 36.8125 54.6875 
L 36.8125 47.703125 
L 18.3125 47.703125 
L 18.3125 18.015625 
Q 18.3125 11.328125 20.140625 9.421875 
Q 21.96875 7.515625 27.59375 7.515625 
L 36.8125 7.515625 
L 36.8125 0 
L 27.59375 0 
Q 17.1875 0 13.234375 3.875 
Q 9.28125 7.765625 9.28125 18.015625 
L 9.28125 47.703125 
L 2.6875 47.703125 
L 2.6875 54.6875 
L 9.28125 54.6875 
L 9.28125 70.21875 
z
" id="BitstreamVeraSans-Roman-74"/>
      <path d="M 9.421875 54.6875 
L 18.40625 54.6875 
L 18.40625 0 
L 9.421875 0 
z
M 9.421875 75.984375 
L 18.40625 75.984375 
L 18.40625 64.59375 
L 9.421875 64.59375 
z
" id="BitstreamVeraSans-Roman-69"/>
      <path id="BitstreamVeraSans-Roman-20"/>
      <path d="M 45.40625 46.390625 
L 45.40625 75.984375 
L 54.390625 75.984375 
L 54.390625 0 
L 45.40625 0 
L 45.40625 8.203125 
Q 42.578125 3.328125 38.25 0.953125 
Q 33.9375 -1.421875 27.875 -1.421875 
Q 17.96875 -1.421875 11.734375 6.484375 
Q 5.515625 14.40625 5.515625 27.296875 
Q 5.515625 40.1875 11.734375 48.09375 
Q 17.96875 56 27.875 56 
Q 33.9375 56 38.25 53.625 
Q 42.578125 51.265625 45.40625 46.390625 
M 14.796875 27.296875 
Q 14.796875 17.390625 18.875 11.75 
Q 22.953125 6.109375 30.078125 6.109375 
Q 37.203125 6.109375 41.296875 11.75 
Q 45.40625 17.390625 45.40625 27.296875 
Q 45.40625 37.203125 41.296875 42.84375 
Q 37.203125 48.484375 30.078125 48.484375 
Q 22.953125 48.484375 18.875 42.84375 
Q 14.796875 37.203125 14.796875 27.296875 
" id="BitstreamVeraSans-Roman-64"/>
      <path d="M 56.203125 29.59375 
L 56.203125 25.203125 
L 14.890625 25.203125 
Q 15.484375 15.921875 20.484375 11.0625 
Q 25.484375 6.203125 34.421875 6.203125 
Q 39.59375 6.203125 44.453125 7.46875 
Q 49.3125 8.734375 54.109375 11.28125 
L 54.109375 2.78125 
Q 49.265625 0.734375 44.1875 -0.34375 
Q 39.109375 -1.421875 33.890625 -1.421875 
Q 20.796875 -1.421875 13.15625 6.1875 
Q 5.515625 13.8125 5.515625 26.8125 
Q 5.515625 40.234375 12.765625 48.109375 
Q 20.015625 56 32.328125 56 
Q 43.359375 56 49.78125 48.890625 
Q 56.203125 41.796875 56.203125 29.59375 
M 47.21875 32.234375 
Q 47.125 39.59375 43.09375 43.984375 
Q 39.0625 48.390625 32.421875 48.390625 
Q 24.90625 48.390625 20.390625 44.140625 
Q 15.875 39.890625 15.1875 32.171875 
z
" id="BitstreamVeraSans-Roman-65"/>
      <path d="M 52 44.1875 
Q 55.375 50.25 60.0625 53.125 
Q 64.75 56 71.09375 56 
Q 79.640625 56 84.28125 50.015625 
Q 88.921875 44.046875 88.921875 33.015625 
L 88.921875 0 
L 79.890625 0 
L 79.890625 32.71875 
Q 79.890625 40.578125 77.09375 44.375 
Q 74.3125 48.1875 68.609375 48.1875 
Q 61.625 48.1875 57.5625 43.546875 
Q 53.515625 38.921875 53.515625 30.90625 
L 53.515625 0 
L 44.484375 0 
L 44.484375 32.71875 
Q 44.484375 40.625 41.703125 44.40625 
Q 38.921875 48.1875 33.109375 48.1875 
Q 26.21875 48.1875 22.15625 43.53125 
Q 18.109375 38.875 18.109375 30.90625 
L 18.109375 0 
L 9.078125 0 
L 9.078125 54.6875 
L 18.109375 54.6875 
L 18.109375 46.1875 
Q 21.1875 51.21875 25.484375 53.609375 
Q 29.78125 56 35.6875 56 
Q 41.65625 56 45.828125 52.96875 
Q 50 49.953125 52 44.1875 
" id="BitstreamVeraSans-Roman-6d"/>
      <path d="M 3.328125 72.90625 
L 13.28125 72.90625 
L 28.609375 11.28125 
L 43.890625 72.90625 
L 54.984375 72.90625 
L 70.3125 11.28125 
L 85.59375 72.90625 
L 95.609375 72.90625 
L 77.296875 0 
L 64.890625 0 
L 49.515625 63.28125 
L 33.984375 0 
L 21.578125 0 
z
" id="BitstreamVeraSans-Roman-57"/>
     </defs>
     <g transform="translate(158.626875 209.33375)scale(0.06 -0.06)">
      <use xlink:href="#BitstreamVeraSans-Roman-52"/>
      <use x="69.419921875" xlink:href="#BitstreamVeraSans-Roman-65"/>
      <use x="130.943359375" xlink:href="#BitstreamVeraSans-Roman-61"/>
      <use x="192.22265625" xlink:href="#BitstreamVeraSans-Roman-72"/>
      <use x="233.3359375" xlink:href="#BitstreamVeraSans-Roman-20"/>
      <use x="265.123046875" xlink:href="#BitstreamVeraSans-Roman-57"/>
      <use x="363.96875" xlink:href="#BitstreamVeraSans-Roman-69"/>
      <use x="391.751953125" xlink:href="#BitstreamVeraSans-Roman-64"/>
      <use x="455.228515625" xlink:href="#BitstreamVeraSans-Roman-74"/>
      <use x="494.4375" xlink:href="#BitstreamVeraSans-Roman-68"/>
      <use x="557.81640625" xlink:href="#BitstreamVeraSans-Roman-20"/>
      <use x="589.603515625" xlink:href="#BitstreamVeraSans-Roman-28"/>
      <use x="628.6171875" xlink:href="#BitstreamVeraSans-Roman-6d"/>
      <use x="726.029296875" xlink:href="#BitstreamVeraSans-Roman-6d"/>
      <use x="823.44140625" xlink:href="#BitstreamVeraSans-Roman-29"/>
     </g>
    </g>
   </g>
   <g id="matplotlib.axis_2">
    <g id="ytick_1">
     <g id="line2d_11">
      <defs>
       <path d="M 0 0 
L 5 0 
" id="m2cdd149dd3" style="stroke:#000000;stroke-width:0.5;"/>
      </defs>
      <g>
       <use style="stroke:#000000;stroke-width:0.5;" x="45.0" xlink:href="#m2cdd149dd3" y="179.152941176"/>
      </g>
     </g>
     <g id="text_11">
      <!-- 6 -->
      <g transform="translate(36.54625 181.084503676)scale(0.07 -0.07)">
       <use xlink:href="#BitstreamVeraSans-Roman-36"/>
      </g>
     </g>
    </g>
    <g id="ytick_2">
     <g id="line2d_12">
      <g>
       <use style="stroke:#000000;stroke-width:0.5;" x="45.0" xlink:href="#m2cdd149dd3" y="159.458823529"/>
      </g>
     </g>
     <g id="text_12">
      <!-- 8 -->
      <g transform="translate(36.54625 161.390386029)scale(0.07 -0.07)">
       <use xlink:href="#BitstreamVeraSans-Roman-38"/>
      </g>
     </g>
    </g>
    <g id="ytick_3">
     <g id="line2d_13">
      <g>
       <use style="stroke:#000000;stroke-width:0.5;" x="45.0" xlink:href="#m2cdd149dd3" y="139.764705882"/>
      </g>
     </g>
     <g id="text_13">
      <!-- 10 -->
      <g transform="translate(32.0925 141.696268382)scale(0.07 -0.07)">
       <use xlink:href="#BitstreamVeraSans-Roman-31"/>
       <use x="63.623046875" xlink:href="#BitstreamVeraSans-Roman-30"/>
      </g>
     </g>
    </g>
    <g id="ytick_4">
     <g id="line2d_14">
      <g>
       <use style="stroke:#000000;stroke-width:0.5;" x="45.0" xlink:href="#m2cdd149dd3" y="120.070588235"/>
      </g>
     </g>
     <g id="text_14">
      <!-- 12 -->
      <g transform="translate(32.0925 122.002150735)scale(0.07 -0.07)">
       <use xlink:href="#BitstreamVeraSans-Roman-31"/>
       <use x="63.623046875" xlink:href="#BitstreamVeraSans-Roman-32"/>
      </g>
     </g>
    </g>
    <g id="ytick_5">
     <g id="line2d_15">
      <g>
       <use style="stroke:#000000;stroke-width:0.5;" x="45.0" xlink:href="#m2cdd149dd3" y="100.376470588"/>
      </g>
     </g>
     <g id="text_15">
      <!-- 14 -->
      <g transform="translate(32.0925 102.308033088)scale(0.07 -0.07)">
       <use xlink:href="#BitstreamVeraSans-Roman-31"/>
       <use x="63.623046875" xlink:href="#BitstreamVeraSans-Roman-34"/>
      </g>
     </g>
    </g>
    <g id="ytick_6">
     <g id="line2d_16">
      <g>
       <use style="stroke:#000000;stroke-width:0.5;" x="45.0" xlink:href="#m2cdd149dd3" y="80.6823529412"/>
      </g>
     </g>
     <g id="text_16">
      <!-- 16 -->
      <g transform="translate(32.0925 82.6139154412)scale(0.07 -0.07)">
       <use xlink:href="#BitstreamVeraSans-Roman-31"/>
       <use x="63.623046875" xlink:href="#BitstreamVeraSans-Roman-36"/>
      </g>
     </g>
    </g>
    <g id="ytick_7">
     <g id="line2d_17">
      <g>
       <use style="stroke:#000000;stroke-width:0.5;" x="45.0" xlink:href="#m2cdd149dd3" y="60.9882352941"/>
      </g>
     </g>
     <g id="text_17">
      <!-- 18 -->
      <g transform="translate(32.0925 62.9197977941)scale(0.07 -0.07)">
       <use xlink:href="#BitstreamVeraSans-Roman-31"/>
       <use x="63.623046875" xlink:href="#BitstreamVeraSans-Roman-38"/>
      </g>
     </g>
    </g>
    <g id="ytick_8">
     <g id="line2d_18">
      <g>
       <use style="stroke:#000000;stroke-width:0.5;" x="45.0" xlink:href="#m2cdd149dd3" y="41.2941176471"/>
      </g>
     </g>
     <g id="text_18">
      <!-- 20 -->
      <g transform="translate(32.0925 43.2256801471)scale(0.07 -0.07)">
       <use xlink:href="#BitstreamVeraSans-Roman-32"/>
       <use x="63.623046875" xlink:href="#BitstreamVeraSans-Roman-30"/>
      </g>
     </g>
    </g>
    <g id="ytick_9">
     <g id="line2d_19">
      <g>
       <use style="stroke:#000000;stroke-width:0.5;" x="45.0" xlink:href="#m2cdd149dd3" y="21.6"/>
      </g>
     </g>
     <g id="text_19">
      <!-- 22 -->
      <g transform="translate(32.0925 23.5315625)scale(0.07 -0.07)">
       <use xlink:href="#BitstreamVeraSans-Roman-32"/>
       <use x="63.623046875" xlink:href="#BitstreamVeraSans-Roman-32"/>
      </g>
     </g>
    </g>
    <g id="text_20">
     <!-- Body Depth (mm) -->
     <defs>
      <path d="M 18.109375 8.203125 
L 18.109375 -20.796875 
L 9.078125 -20.796875 
L 9.078125 54.6875 
L 18.109375 54.6875 
L 18.109375 46.390625 
Q 20.953125 51.265625 25.265625 53.625 
Q 29.59375 56 35.59375 56 
Q 45.5625 56 51.78125 48.09375 
Q 58.015625 40.1875 58.015625 27.296875 
Q 58.015625 14.40625 51.78125 6.484375 
Q 45.5625 -1.421875 35.59375 -1.421875 
Q 29.59375 -1.421875 25.265625 0.953125 
Q 20.953125 3.328125 18.109375 8.203125 
M 48.6875 27.296875 
Q 48.6875 37.203125 44.609375 42.84375 
Q 40.53125 48.484375 33.40625 48.484375 
Q 26.265625 48.484375 22.1875 42.84375 
Q 18.109375 37.203125 18.109375 27.296875 
Q 18.109375 17.390625 22.1875 11.75 
Q 26.265625 6.109375 33.40625 6.109375 
Q 40.53125 6.109375 44.609375 11.75 
Q 48.6875 17.390625 48.6875 27.296875 
" id="BitstreamVeraSans-Roman-70"/>
      <path d="M 32.171875 -5.078125 
Q 28.375 -14.84375 24.75 -17.8125 
Q 21.140625 -20.796875 15.09375 -20.796875 
L 7.90625 -20.796875 
L 7.90625 -13.28125 
L 13.1875 -13.28125 
Q 16.890625 -13.28125 18.9375 -11.515625 
Q 21 -9.765625 23.484375 -3.21875 
L 25.09375 0.875 
L 2.984375 54.6875 
L 12.5 54.6875 
L 29.59375 11.921875 
L 46.6875 54.6875 
L 56.203125 54.6875 
z
" id="BitstreamVeraSans-Roman-79"/>
      <path d="M 19.671875 34.8125 
L 19.671875 8.109375 
L 35.5 8.109375 
Q 43.453125 8.109375 47.28125 11.40625 
Q 51.125 14.703125 51.125 21.484375 
Q 51.125 28.328125 47.28125 31.5625 
Q 43.453125 34.8125 35.5 34.8125 
z
M 19.671875 64.796875 
L 19.671875 42.828125 
L 34.28125 42.828125 
Q 41.5 42.828125 45.03125 45.53125 
Q 48.578125 48.25 48.578125 53.8125 
Q 48.578125 59.328125 45.03125 62.0625 
Q 41.5 64.796875 34.28125 64.796875 
z
M 9.8125 72.90625 
L 35.015625 72.90625 
Q 46.296875 72.90625 52.390625 68.21875 
Q 58.5 63.53125 58.5 54.890625 
Q 58.5 48.1875 55.375 44.234375 
Q 52.25 40.28125 46.1875 39.3125 
Q 53.46875 37.75 57.5 32.78125 
Q 61.53125 27.828125 61.53125 20.40625 
Q 61.53125 10.640625 54.890625 5.3125 
Q 48.25 0 35.984375 0 
L 9.8125 0 
z
" id="BitstreamVeraSans-Roman-42"/>
      <path d="M 19.671875 64.796875 
L 19.671875 8.109375 
L 31.59375 8.109375 
Q 46.6875 8.109375 53.6875 14.9375 
Q 60.6875 21.78125 60.6875 36.53125 
Q 60.6875 51.171875 53.6875 57.984375 
Q 46.6875 64.796875 31.59375 64.796875 
z
M 9.8125 72.90625 
L 30.078125 72.90625 
Q 51.265625 72.90625 61.171875 64.09375 
Q 71.09375 55.28125 71.09375 36.53125 
Q 71.09375 17.671875 61.125 8.828125 
Q 51.171875 0 30.078125 0 
L 9.8125 0 
z
" id="BitstreamVeraSans-Roman-44"/>
      <path d="M 30.609375 48.390625 
Q 23.390625 48.390625 19.1875 42.75 
Q 14.984375 37.109375 14.984375 27.296875 
Q 14.984375 17.484375 19.15625 11.84375 
Q 23.34375 6.203125 30.609375 6.203125 
Q 37.796875 6.203125 41.984375 11.859375 
Q 46.1875 17.53125 46.1875 27.296875 
Q 46.1875 37.015625 41.984375 42.703125 
Q 37.796875 48.390625 30.609375 48.390625 
M 30.609375 56 
Q 42.328125 56 49.015625 48.375 
Q 55.71875 40.765625 55.71875 27.296875 
Q 55.71875 13.875 49.015625 6.21875 
Q 42.328125 -1.421875 30.609375 -1.421875 
Q 18.84375 -1.421875 12.171875 6.21875 
Q 5.515625 13.875 5.515625 27.296875 
Q 5.515625 40.765625 12.171875 48.375 
Q 18.84375 56 30.609375 56 
" id="BitstreamVeraSans-Roman-6f"/>
     </defs>
     <g transform="translate(25.8446875 132.1040625)rotate(-90.0)scale(0.06 -0.06)">
      <use xlink:href="#BitstreamVeraSans-Roman-42"/>
      <use x="68.603515625" xlink:href="#BitstreamVeraSans-Roman-6f"/>
      <use x="129.78515625" xlink:href="#BitstreamVeraSans-Roman-64"/>
      <use x="193.26171875" xlink:href="#BitstreamVeraSans-Roman-79"/>
      <use x="252.44140625" xlink:href="#BitstreamVeraSans-Roman-20"/>
      <use x="284.228515625" xlink:href="#BitstreamVeraSans-Roman-44"/>
      <use x="361.23046875" xlink:href="#BitstreamVeraSans-Roman-65"/>
      <use x="422.75390625" xlink:href="#BitstreamVeraSans-Roman-70"/>
      <use x="486.23046875" xlink:href="#BitstreamVeraSans-Roman-74"/>
      <use x="525.439453125" xlink:href="#BitstreamVeraSans-Roman-68"/>
      <use x="588.818359375" xlink:href="#BitstreamVeraSans-Roman-20"/>
      <use x="620.60546875" xlink:href="#BitstreamVeraSans-Roman-28"/>
      <use x="659.619140625" xlink:href="#BitstreamVeraSans-Roman-6d"/>
      <use x="757.03125" xlink:href="#BitstreamVeraSans-Roman-6d"/>
      <use x="854.443359375" xlink:href="#BitstreamVeraSans-Roman-29"/>
     </g>
    </g>
   </g>
  </g>
 </g>
</svg>
