<?xml version="1.0" encoding="utf-8" standalone="no"?>
<!DOCTYPE svg PUBLIC "-//W3C//DTD SVG 1.1//EN"
  "http://www.w3.org/Graphics/SVG/1.1/DTD/svg11.dtd">
<!-- Created with matplotlib (http://matplotlib.org/) -->
<svg height="360pt" version="1.1" viewBox="0 0 576 360" width="576pt" xmlns="http://www.w3.org/2000/svg" xmlns:xlink="http://www.w3.org/1999/xlink">
 <defs>
  <style type="text/css">
*{stroke-linecap:butt;stroke-linejoin:round;stroke-miterlimit:100000;}
  </style>
 </defs>
 <g id="figure_1">
  <g id="patch_1">
   <path d="M 0 360 
L 576 360 
L 576 0 
L 0 0 
z
" style="fill:#ffffff;"/>
  </g>
  <g id="axes_1">
   <g id="patch_2">
    <path d="M 72 315 
L 518.4 315 
L 518.4 36 
L 72 36 
z
" style="fill:#ffffff;"/>
   </g>
   <g id="line2d_1">
    <path d="M 116.64 282.176471 
L 142.898824 275.611765 
L 145.524706 270.688235 
L 148.150588 262.482353 
L 150.776471 262.482353 
L 177.035294 236.223529 
L 200.668235 236.223529 
L 179.661176 226.376471 
L 192.790588 237.864706 
L 216.423529 228.017647 
L 224.301176 218.170588 
L 229.552941 209.964706 
L 203.294118 209.964706 
L 208.545882 218.170588 
L 226.927059 216.529412 
L 229.552941 209.964706 
L 219.049412 216.529412 
L 226.927059 213.247059 
L 232.178824 211.605882 
L 232.178824 198.476471 
L 245.308235 188.629412 
L 237.430588 172.217647 
L 226.927059 180.423529 
L 242.682353 177.141176 
L 253.185882 173.858824 
L 258.437647 173.858824 
L 250.56 173.858824 
L 271.567059 159.088235 
L 274.192941 164.011765 
L 245.308235 160.729412 
L 276.818824 139.394118 
L 289.948235 144.317647 
L 274.192941 152.523529 
L 282.070588 147.6 
L 295.2 152.523529 
L 276.818824 152.523529 
L 287.322353 141.035294 
L 271.567059 149.241176 
L 274.192941 141.035294 
L 295.2 132.829412 
L 297.825882 134.470588 
L 310.955294 121.341176 
L 300.451765 131.188235 
L 355.595294 104.929412 
L 295.2 104.929412 
L 303.077647 121.341176 
L 342.465882 104.929412 
L 313.581176 91.8 
L 316.207059 96.723529 
L 352.969412 68.823529 
L 111.388235 296.947059 
L 163.905882 270.688235 
L 153.402353 270.688235 
L 156.028235 270.688235 
L 156.028235 269.047059 
L 174.409412 252.635294 
L 184.912941 259.2 
L 190.164706 250.994118 
L 195.416471 260.841176 
L 190.164706 247.711765 
L 198.042353 262.482353 
L 203.294118 242.788235 
L 229.552941 231.3 
L 229.552941 226.376471 
L 240.056471 232.941176 
L 219.049412 226.376471 
L 240.056471 218.170588 
L 221.675294 224.735294 
L 232.178824 216.529412 
L 261.063529 213.247059 
L 247.934118 201.758824 
L 261.063529 214.888235 
L 261.063529 208.323529 
L 240.056471 211.605882 
L 242.682353 214.888235 
L 261.063529 208.323529 
L 250.56 205.041176 
L 268.941176 201.758824 
L 282.070588 182.064706 
L 268.941176 191.911765 
L 287.322353 200.117647 
L 303.077647 167.294118 
L 313.581176 167.294118 
L 289.948235 175.5 
L 295.2 170.576471 
L 303.077647 183.705882 
L 316.207059 155.805882 
L 313.581176 170.576471 
L 289.948235 170.576471 
L 303.077647 155.805882 
L 305.703529 177.141176 
L 326.710588 162.370588 
L 305.703529 165.652941 
L 334.588235 145.958824 
L 339.84 168.935294 
L 308.329412 147.6 
L 363.472941 144.317647 
L 384.48 124.623529 
L 379.228235 118.058824 
L 373.976471 100.005882 
" style="fill:none;stroke:#0000ff;stroke-linecap:square;"/>
    <defs>
     <path d="M 0 1.5 
C 0.397805 1.5 0.77937 1.341951 1.06066 1.06066 
C 1.341951 0.77937 1.5 0.397805 1.5 0 
C 1.5 -0.397805 1.341951 -0.77937 1.06066 -1.06066 
C 0.77937 -1.341951 0.397805 -1.5 0 -1.5 
C -0.397805 -1.5 -0.77937 -1.341951 -1.06066 -1.06066 
C -1.341951 -0.77937 -1.5 -0.397805 -1.5 0 
C -1.5 0.397805 -1.341951 0.77937 -1.06066 1.06066 
C -0.77937 1.341951 -0.397805 1.5 0 1.5 
z
" id="m421d88585b" style="stroke:#0000ff;stroke-width:0.5;"/>
    </defs>
    <g>
     <use style="fill:#0000ff;stroke:#0000ff;stroke-width:0.5;" x="116.64" xlink:href="#m421d88585b" y="282.176470588"/>
     <use style="fill:#0000ff;stroke:#0000ff;stroke-width:0.5;" x="142.898823529" xlink:href="#m421d88585b" y="275.611764706"/>
     <use style="fill:#0000ff;stroke:#0000ff;stroke-width:0.5;" x="145.524705882" xlink:href="#m421d88585b" y="270.688235294"/>
     <use style="fill:#0000ff;stroke:#0000ff;stroke-width:0.5;" x="148.150588235" xlink:href="#m421d88585b" y="262.482352941"/>
     <use style="fill:#0000ff;stroke:#0000ff;stroke-width:0.5;" x="150.776470588" xlink:href="#m421d88585b" y="262.482352941"/>
     <use style="fill:#0000ff;stroke:#0000ff;stroke-width:0.5;" x="177.035294118" xlink:href="#m421d88585b" y="236.223529412"/>
     <use style="fill:#0000ff;stroke:#0000ff;stroke-width:0.5;" x="200.668235294" xlink:href="#m421d88585b" y="236.223529412"/>
     <use style="fill:#0000ff;stroke:#0000ff;stroke-width:0.5;" x="179.661176471" xlink:href="#m421d88585b" y="226.376470588"/>
     <use style="fill:#0000ff;stroke:#0000ff;stroke-width:0.5;" x="192.790588235" xlink:href="#m421d88585b" y="237.864705882"/>
     <use style="fill:#0000ff;stroke:#0000ff;stroke-width:0.5;" x="216.423529412" xlink:href="#m421d88585b" y="228.017647059"/>
     <use style="fill:#0000ff;stroke:#0000ff;stroke-width:0.5;" x="224.301176471" xlink:href="#m421d88585b" y="218.170588235"/>
     <use style="fill:#0000ff;stroke:#0000ff;stroke-width:0.5;" x="229.552941176" xlink:href="#m421d88585b" y="209.964705882"/>
     <use style="fill:#0000ff;stroke:#0000ff;stroke-width:0.5;" x="203.294117647" xlink:href="#m421d88585b" y="209.964705882"/>
     <use style="fill:#0000ff;stroke:#0000ff;stroke-width:0.5;" x="208.545882353" xlink:href="#m421d88585b" y="218.170588235"/>
     <use style="fill:#0000ff;stroke:#0000ff;stroke-width:0.5;" x="226.927058824" xlink:href="#m421d88585b" y="216.529411765"/>
     <use style="fill:#0000ff;stroke:#0000ff;stroke-width:0.5;" x="229.552941176" xlink:href="#m421d88585b" y="209.964705882"/>
     <use style="fill:#0000ff;stroke:#0000ff;stroke-width:0.5;" x="219.049411765" xlink:href="#m421d88585b" y="216.529411765"/>
     <use style="fill:#0000ff;stroke:#0000ff;stroke-width:0.5;" x="226.927058824" xlink:href="#m421d88585b" y="213.247058824"/>
     <use style="fill:#0000ff;stroke:#0000ff;stroke-width:0.5;" x="232.178823529" xlink:href="#m421d88585b" y="211.605882353"/>
     <use style="fill:#0000ff;stroke:#0000ff;stroke-width:0.5;" x="232.178823529" xlink:href="#m421d88585b" y="198.476470588"/>
     <use style="fill:#0000ff;stroke:#0000ff;stroke-width:0.5;" x="245.308235294" xlink:href="#m421d88585b" y="188.629411765"/>
     <use style="fill:#0000ff;stroke:#0000ff;stroke-width:0.5;" x="237.430588235" xlink:href="#m421d88585b" y="172.217647059"/>
     <use style="fill:#0000ff;stroke:#0000ff;stroke-width:0.5;" x="226.927058824" xlink:href="#m421d88585b" y="180.423529412"/>
     <use style="fill:#0000ff;stroke:#0000ff;stroke-width:0.5;" x="242.682352941" xlink:href="#m421d88585b" y="177.141176471"/>
     <use style="fill:#0000ff;stroke:#0000ff;stroke-width:0.5;" x="253.185882353" xlink:href="#m421d88585b" y="173.858823529"/>
     <use style="fill:#0000ff;stroke:#0000ff;stroke-width:0.5;" x="258.437647059" xlink:href="#m421d88585b" y="173.858823529"/>
     <use style="fill:#0000ff;stroke:#0000ff;stroke-width:0.5;" x="250.56" xlink:href="#m421d88585b" y="173.858823529"/>
     <use style="fill:#0000ff;stroke:#0000ff;stroke-width:0.5;" x="271.567058824" xlink:href="#m421d88585b" y="159.088235294"/>
     <use style="fill:#0000ff;stroke:#0000ff;stroke-width:0.5;" x="274.192941176" xlink:href="#m421d88585b" y="164.011764706"/>
     <use style="fill:#0000ff;stroke:#0000ff;stroke-width:0.5;" x="245.308235294" xlink:href="#m421d88585b" y="160.729411765"/>
     <use style="fill:#0000ff;stroke:#0000ff;stroke-width:0.5;" x="276.818823529" xlink:href="#m421d88585b" y="139.394117647"/>
     <use style="fill:#0000ff;stroke:#0000ff;stroke-width:0.5;" x="289.948235294" xlink:href="#m421d88585b" y="144.317647059"/>
     <use style="fill:#0000ff;stroke:#0000ff;stroke-width:0.5;" x="274.192941176" xlink:href="#m421d88585b" y="152.523529412"/>
     <use style="fill:#0000ff;stroke:#0000ff;stroke-width:0.5;" x="282.070588235" xlink:href="#m421d88585b" y="147.6"/>
     <use style="fill:#0000ff;stroke:#0000ff;stroke-width:0.5;" x="295.2" xlink:href="#m421d88585b" y="152.523529412"/>
     <use style="fill:#0000ff;stroke:#0000ff;stroke-width:0.5;" x="276.818823529" xlink:href="#m421d88585b" y="152.523529412"/>
     <use style="fill:#0000ff;stroke:#0000ff;stroke-width:0.5;" x="287.322352941" xlink:href="#m421d88585b" y="141.035294118"/>
     <use style="fill:#0000ff;stroke:#0000ff;stroke-width:0.5;" x="271.567058824" xlink:href="#m421d88585b" y="149.241176471"/>
     <use style="fill:#0000ff;stroke:#0000ff;stroke-width:0.5;" x="274.192941176" xlink:href="#m421d88585b" y="141.035294118"/>
     <use style="fill:#0000ff;stroke:#0000ff;stroke-width:0.5;" x="295.2" xlink:href="#m421d88585b" y="132.829411765"/>
     <use style="fill:#0000ff;stroke:#0000ff;stroke-width:0.5;" x="297.825882353" xlink:href="#m421d88585b" y="134.470588235"/>
     <use style="fill:#0000ff;stroke:#0000ff;stroke-width:0.5;" x="310.955294118" xlink:href="#m421d88585b" y="121.341176471"/>
     <use style="fill:#0000ff;stroke:#0000ff;stroke-width:0.5;" x="300.451764706" xlink:href="#m421d88585b" y="131.188235294"/>
     <use style="fill:#0000ff;stroke:#0000ff;stroke-width:0.5;" x="355.595294118" xlink:href="#m421d88585b" y="104.929411765"/>
     <use style="fill:#0000ff;stroke:#0000ff;stroke-width:0.5;" x="295.2" xlink:href="#m421d88585b" y="104.929411765"/>
     <use style="fill:#0000ff;stroke:#0000ff;stroke-width:0.5;" x="303.077647059" xlink:href="#m421d88585b" y="121.341176471"/>
     <use style="fill:#0000ff;stroke:#0000ff;stroke-width:0.5;" x="342.465882353" xlink:href="#m421d88585b" y="104.929411765"/>
     <use style="fill:#0000ff;stroke:#0000ff;stroke-width:0.5;" x="313.581176471" xlink:href="#m421d88585b" y="91.8"/>
     <use style="fill:#0000ff;stroke:#0000ff;stroke-width:0.5;" x="316.207058824" xlink:href="#m421d88585b" y="96.7235294118"/>
     <use style="fill:#0000ff;stroke:#0000ff;stroke-width:0.5;" x="352.969411765" xlink:href="#m421d88585b" y="68.8235294118"/>
     <use style="fill:#0000ff;stroke:#0000ff;stroke-width:0.5;" x="111.388235294" xlink:href="#m421d88585b" y="296.947058824"/>
     <use style="fill:#0000ff;stroke:#0000ff;stroke-width:0.5;" x="163.905882353" xlink:href="#m421d88585b" y="270.688235294"/>
     <use style="fill:#0000ff;stroke:#0000ff;stroke-width:0.5;" x="153.402352941" xlink:href="#m421d88585b" y="270.688235294"/>
     <use style="fill:#0000ff;stroke:#0000ff;stroke-width:0.5;" x="156.028235294" xlink:href="#m421d88585b" y="270.688235294"/>
     <use style="fill:#0000ff;stroke:#0000ff;stroke-width:0.5;" x="156.028235294" xlink:href="#m421d88585b" y="269.047058824"/>
     <use style="fill:#0000ff;stroke:#0000ff;stroke-width:0.5;" x="174.409411765" xlink:href="#m421d88585b" y="252.635294118"/>
     <use style="fill:#0000ff;stroke:#0000ff;stroke-width:0.5;" x="184.912941176" xlink:href="#m421d88585b" y="259.2"/>
     <use style="fill:#0000ff;stroke:#0000ff;stroke-width:0.5;" x="190.164705882" xlink:href="#m421d88585b" y="250.994117647"/>
     <use style="fill:#0000ff;stroke:#0000ff;stroke-width:0.5;" x="195.416470588" xlink:href="#m421d88585b" y="260.841176471"/>
     <use style="fill:#0000ff;stroke:#0000ff;stroke-width:0.5;" x="190.164705882" xlink:href="#m421d88585b" y="247.711764706"/>
     <use style="fill:#0000ff;stroke:#0000ff;stroke-width:0.5;" x="198.042352941" xlink:href="#m421d88585b" y="262.482352941"/>
     <use style="fill:#0000ff;stroke:#0000ff;stroke-width:0.5;" x="203.294117647" xlink:href="#m421d88585b" y="242.788235294"/>
     <use style="fill:#0000ff;stroke:#0000ff;stroke-width:0.5;" x="229.552941176" xlink:href="#m421d88585b" y="231.3"/>
     <use style="fill:#0000ff;stroke:#0000ff;stroke-width:0.5;" x="229.552941176" xlink:href="#m421d88585b" y="226.376470588"/>
     <use style="fill:#0000ff;stroke:#0000ff;stroke-width:0.5;" x="240.056470588" xlink:href="#m421d88585b" y="232.941176471"/>
     <use style="fill:#0000ff;stroke:#0000ff;stroke-width:0.5;" x="219.049411765" xlink:href="#m421d88585b" y="226.376470588"/>
     <use style="fill:#0000ff;stroke:#0000ff;stroke-width:0.5;" x="240.056470588" xlink:href="#m421d88585b" y="218.170588235"/>
     <use style="fill:#0000ff;stroke:#0000ff;stroke-width:0.5;" x="221.675294118" xlink:href="#m421d88585b" y="224.735294118"/>
     <use style="fill:#0000ff;stroke:#0000ff;stroke-width:0.5;" x="232.178823529" xlink:href="#m421d88585b" y="216.529411765"/>
     <use style="fill:#0000ff;stroke:#0000ff;stroke-width:0.5;" x="261.063529412" xlink:href="#m421d88585b" y="213.247058824"/>
     <use style="fill:#0000ff;stroke:#0000ff;stroke-width:0.5;" x="247.934117647" xlink:href="#m421d88585b" y="201.758823529"/>
     <use style="fill:#0000ff;stroke:#0000ff;stroke-width:0.5;" x="261.063529412" xlink:href="#m421d88585b" y="214.888235294"/>
     <use style="fill:#0000ff;stroke:#0000ff;stroke-width:0.5;" x="261.063529412" xlink:href="#m421d88585b" y="208.323529412"/>
     <use style="fill:#0000ff;stroke:#0000ff;stroke-width:0.5;" x="240.056470588" xlink:href="#m421d88585b" y="211.605882353"/>
     <use style="fill:#0000ff;stroke:#0000ff;stroke-width:0.5;" x="242.682352941" xlink:href="#m421d88585b" y="214.888235294"/>
     <use style="fill:#0000ff;stroke:#0000ff;stroke-width:0.5;" x="261.063529412" xlink:href="#m421d88585b" y="208.323529412"/>
     <use style="fill:#0000ff;stroke:#0000ff;stroke-width:0.5;" x="250.56" xlink:href="#m421d88585b" y="205.041176471"/>
     <use style="fill:#0000ff;stroke:#0000ff;stroke-width:0.5;" x="268.941176471" xlink:href="#m421d88585b" y="201.758823529"/>
     <use style="fill:#0000ff;stroke:#0000ff;stroke-width:0.5;" x="282.070588235" xlink:href="#m421d88585b" y="182.064705882"/>
     <use style="fill:#0000ff;stroke:#0000ff;stroke-width:0.5;" x="268.941176471" xlink:href="#m421d88585b" y="191.911764706"/>
     <use style="fill:#0000ff;stroke:#0000ff;stroke-width:0.5;" x="287.322352941" xlink:href="#m421d88585b" y="200.117647059"/>
     <use style="fill:#0000ff;stroke:#0000ff;stroke-width:0.5;" x="303.077647059" xlink:href="#m421d88585b" y="167.294117647"/>
     <use style="fill:#0000ff;stroke:#0000ff;stroke-width:0.5;" x="313.581176471" xlink:href="#m421d88585b" y="167.294117647"/>
     <use style="fill:#0000ff;stroke:#0000ff;stroke-width:0.5;" x="289.948235294" xlink:href="#m421d88585b" y="175.5"/>
     <use style="fill:#0000ff;stroke:#0000ff;stroke-width:0.5;" x="295.2" xlink:href="#m421d88585b" y="170.576470588"/>
     <use style="fill:#0000ff;stroke:#0000ff;stroke-width:0.5;" x="303.077647059" xlink:href="#m421d88585b" y="183.705882353"/>
     <use style="fill:#0000ff;stroke:#0000ff;stroke-width:0.5;" x="316.207058824" xlink:href="#m421d88585b" y="155.805882353"/>
     <use style="fill:#0000ff;stroke:#0000ff;stroke-width:0.5;" x="313.581176471" xlink:href="#m421d88585b" y="170.576470588"/>
     <use style="fill:#0000ff;stroke:#0000ff;stroke-width:0.5;" x="289.948235294" xlink:href="#m421d88585b" y="170.576470588"/>
     <use style="fill:#0000ff;stroke:#0000ff;stroke-width:0.5;" x="303.077647059" xlink:href="#m421d88585b" y="155.805882353"/>
     <use style="fill:#0000ff;stroke:#0000ff;stroke-width:0.5;" x="305.703529412" xlink:href="#m421d88585b" y="177.141176471"/>
     <use style="fill:#0000ff;stroke:#0000ff;stroke-width:0.5;" x="326.710588235" xlink:href="#m421d88585b" y="162.370588235"/>
     <use style="fill:#0000ff;stroke:#0000ff;stroke-width:0.5;" x="305.703529412" xlink:href="#m421d88585b" y="165.652941176"/>
     <use style="fill:#0000ff;stroke:#0000ff;stroke-width:0.5;" x="334.588235294" xlink:href="#m421d88585b" y="145.958823529"/>
     <use style="fill:#0000ff;stroke:#0000ff;stroke-width:0.5;" x="339.84" xlink:href="#m421d88585b" y="168.935294118"/>
     <use style="fill:#0000ff;stroke:#0000ff;stroke-width:0.5;" x="308.329411765" xlink:href="#m421d88585b" y="147.6"/>
     <use style="fill:#0000ff;stroke:#0000ff;stroke-width:0.5;" x="363.472941176" xlink:href="#m421d88585b" y="144.317647059"/>
     <use style="fill:#0000ff;stroke:#0000ff;stroke-width:0.5;" x="384.48" xlink:href="#m421d88585b" y="124.623529412"/>
     <use style="fill:#0000ff;stroke:#0000ff;stroke-width:0.5;" x="379.228235294" xlink:href="#m421d88585b" y="118.058823529"/>
     <use style="fill:#0000ff;stroke:#0000ff;stroke-width:0.5;" x="373.976470588" xlink:href="#m421d88585b" y="100.005882353"/>
    </g>
   </g>
   <g id="line2d_2">
    <path d="M 156.028235 249.352941 
L 166.531765 246.070588 
L 177.035294 231.3 
L 187.538824 219.811765 
L 187.538824 213.247059 
L 213.797647 198.476471 
L 229.552941 196.835294 
L 205.92 200.117647 
L 229.552941 196.835294 
L 242.682353 182.064706 
L 213.797647 175.5 
L 216.423529 182.064706 
L 221.675294 178.782353 
L 219.049412 185.347059 
L 221.675294 188.629412 
L 237.430588 175.5 
L 237.430588 186.988235 
L 232.178824 182.064706 
L 240.056471 167.294118 
L 242.682353 168.935294 
L 232.178824 175.5 
L 261.063529 164.011765 
L 250.56 155.805882 
L 245.308235 159.088235 
L 271.567059 139.394118 
L 276.818824 131.188235 
L 255.811765 145.958824 
L 274.192941 132.829412 
L 268.941176 122.982353 
L 279.444706 126.264706 
L 292.574118 116.417647 
L 300.451765 114.776471 
L 292.574118 106.570588 
L 292.574118 113.135294 
L 295.2 118.058824 
L 292.574118 109.852941 
L 303.077647 103.288235 
L 310.955294 104.929412 
L 318.832941 103.288235 
L 300.451765 101.647059 
L 318.832941 75.388235 
L 334.588235 78.670588 
L 347.717647 54.052941 
L 345.091765 58.976471 
L 329.336471 67.182353 
L 352.969412 50.770588 
L 355.595294 60.617647 
L 381.854118 44.205882 
L 352.969412 42.564706 
L 195.416471 236.223529 
L 182.287059 237.864706 
L 203.294118 218.170588 
L 242.682353 208.323529 
L 234.804706 201.758824 
L 253.185882 190.270588 
L 276.818824 188.629412 
L 261.063529 191.911765 
L 287.322353 185.347059 
L 282.070588 178.782353 
L 263.689412 167.294118 
L 295.2 165.652941 
L 308.329412 170.576471 
L 310.955294 170.576471 
L 297.825882 170.576471 
L 297.825882 167.294118 
L 300.451765 168.935294 
L 308.329412 172.217647 
L 316.207059 155.805882 
L 321.458824 157.447059 
L 316.207059 141.035294 
L 318.832941 134.470588 
L 326.710588 157.447059 
L 308.329412 142.676471 
L 331.962353 139.394118 
L 368.724706 114.776471 
L 352.969412 132.829412 
L 347.717647 136.111765 
L 352.969412 127.905882 
L 324.084706 124.623529 
L 321.458824 150.882353 
L 339.84 124.623529 
L 379.228235 145.958824 
L 360.847059 121.341176 
L 368.724706 114.776471 
L 379.228235 98.364706 
L 376.602353 103.288235 
L 410.738824 103.288235 
L 379.228235 106.570588 
L 392.357647 91.8 
L 360.847059 101.647059 
L 400.235294 81.952941 
L 400.235294 81.952941 
L 373.976471 109.852941 
L 423.868235 68.823529 
L 413.364706 90.158824 
L 389.731765 75.388235 
L 392.357647 77.029412 
L 392.357647 72.105882 
L 471.134118 50.770588 
" style="fill:none;stroke:#bf00bf;stroke-linecap:square;"/>
    <defs>
     <path d="M 0 1.5 
C 0.397805 1.5 0.77937 1.341951 1.06066 1.06066 
C 1.341951 0.77937 1.5 0.397805 1.5 0 
C 1.5 -0.397805 1.341951 -0.77937 1.06066 -1.06066 
C 0.77937 -1.341951 0.397805 -1.5 0 -1.5 
C -0.397805 -1.5 -0.77937 -1.341951 -1.06066 -1.06066 
C -1.341951 -0.77937 -1.5 -0.397805 -1.5 0 
C -1.5 0.397805 -1.341951 0.77937 -1.06066 1.06066 
C -0.77937 1.341951 -0.397805 1.5 0 1.5 
z
" id="m33b7749f87" style="stroke:#bf00bf;stroke-width:0.5;"/>
    </defs>
    <g>
     <use style="fill:#bf00bf;stroke:#bf00bf;stroke-width:0.5;" x="156.028235294" xlink:href="#m33b7749f87" y="249.352941176"/>
     <use style="fill:#bf00bf;stroke:#bf00bf;stroke-width:0.5;" x="166.531764706" xlink:href="#m33b7749f87" y="246.070588235"/>
     <use style="fill:#bf00bf;stroke:#bf00bf;stroke-width:0.5;" x="177.035294118" xlink:href="#m33b7749f87" y="231.3"/>
     <use style="fill:#bf00bf;stroke:#bf00bf;stroke-width:0.5;" x="187.538823529" xlink:href="#m33b7749f87" y="219.811764706"/>
     <use style="fill:#bf00bf;stroke:#bf00bf;stroke-width:0.5;" x="187.538823529" xlink:href="#m33b7749f87" y="213.247058824"/>
     <use style="fill:#bf00bf;stroke:#bf00bf;stroke-width:0.5;" x="213.797647059" xlink:href="#m33b7749f87" y="198.476470588"/>
     <use style="fill:#bf00bf;stroke:#bf00bf;stroke-width:0.5;" x="229.552941176" xlink:href="#m33b7749f87" y="196.835294118"/>
     <use style="fill:#bf00bf;stroke:#bf00bf;stroke-width:0.5;" x="205.92" xlink:href="#m33b7749f87" y="200.117647059"/>
     <use style="fill:#bf00bf;stroke:#bf00bf;stroke-width:0.5;" x="229.552941176" xlink:href="#m33b7749f87" y="196.835294118"/>
     <use style="fill:#bf00bf;stroke:#bf00bf;stroke-width:0.5;" x="242.682352941" xlink:href="#m33b7749f87" y="182.064705882"/>
     <use style="fill:#bf00bf;stroke:#bf00bf;stroke-width:0.5;" x="213.797647059" xlink:href="#m33b7749f87" y="175.5"/>
     <use style="fill:#bf00bf;stroke:#bf00bf;stroke-width:0.5;" x="216.423529412" xlink:href="#m33b7749f87" y="182.064705882"/>
     <use style="fill:#bf00bf;stroke:#bf00bf;stroke-width:0.5;" x="221.675294118" xlink:href="#m33b7749f87" y="178.782352941"/>
     <use style="fill:#bf00bf;stroke:#bf00bf;stroke-width:0.5;" x="219.049411765" xlink:href="#m33b7749f87" y="185.347058824"/>
     <use style="fill:#bf00bf;stroke:#bf00bf;stroke-width:0.5;" x="221.675294118" xlink:href="#m33b7749f87" y="188.629411765"/>
     <use style="fill:#bf00bf;stroke:#bf00bf;stroke-width:0.5;" x="237.430588235" xlink:href="#m33b7749f87" y="175.5"/>
     <use style="fill:#bf00bf;stroke:#bf00bf;stroke-width:0.5;" x="237.430588235" xlink:href="#m33b7749f87" y="186.988235294"/>
     <use style="fill:#bf00bf;stroke:#bf00bf;stroke-width:0.5;" x="232.178823529" xlink:href="#m33b7749f87" y="182.064705882"/>
     <use style="fill:#bf00bf;stroke:#bf00bf;stroke-width:0.5;" x="240.056470588" xlink:href="#m33b7749f87" y="167.294117647"/>
     <use style="fill:#bf00bf;stroke:#bf00bf;stroke-width:0.5;" x="242.682352941" xlink:href="#m33b7749f87" y="168.935294118"/>
     <use style="fill:#bf00bf;stroke:#bf00bf;stroke-width:0.5;" x="232.178823529" xlink:href="#m33b7749f87" y="175.5"/>
     <use style="fill:#bf00bf;stroke:#bf00bf;stroke-width:0.5;" x="261.063529412" xlink:href="#m33b7749f87" y="164.011764706"/>
     <use style="fill:#bf00bf;stroke:#bf00bf;stroke-width:0.5;" x="250.56" xlink:href="#m33b7749f87" y="155.805882353"/>
     <use style="fill:#bf00bf;stroke:#bf00bf;stroke-width:0.5;" x="245.308235294" xlink:href="#m33b7749f87" y="159.088235294"/>
     <use style="fill:#bf00bf;stroke:#bf00bf;stroke-width:0.5;" x="271.567058824" xlink:href="#m33b7749f87" y="139.394117647"/>
     <use style="fill:#bf00bf;stroke:#bf00bf;stroke-width:0.5;" x="276.818823529" xlink:href="#m33b7749f87" y="131.188235294"/>
     <use style="fill:#bf00bf;stroke:#bf00bf;stroke-width:0.5;" x="255.811764706" xlink:href="#m33b7749f87" y="145.958823529"/>
     <use style="fill:#bf00bf;stroke:#bf00bf;stroke-width:0.5;" x="274.192941176" xlink:href="#m33b7749f87" y="132.829411765"/>
     <use style="fill:#bf00bf;stroke:#bf00bf;stroke-width:0.5;" x="268.941176471" xlink:href="#m33b7749f87" y="122.982352941"/>
     <use style="fill:#bf00bf;stroke:#bf00bf;stroke-width:0.5;" x="279.444705882" xlink:href="#m33b7749f87" y="126.264705882"/>
     <use style="fill:#bf00bf;stroke:#bf00bf;stroke-width:0.5;" x="292.574117647" xlink:href="#m33b7749f87" y="116.417647059"/>
     <use style="fill:#bf00bf;stroke:#bf00bf;stroke-width:0.5;" x="300.451764706" xlink:href="#m33b7749f87" y="114.776470588"/>
     <use style="fill:#bf00bf;stroke:#bf00bf;stroke-width:0.5;" x="292.574117647" xlink:href="#m33b7749f87" y="106.570588235"/>
     <use style="fill:#bf00bf;stroke:#bf00bf;stroke-width:0.5;" x="292.574117647" xlink:href="#m33b7749f87" y="113.135294118"/>
     <use style="fill:#bf00bf;stroke:#bf00bf;stroke-width:0.5;" x="295.2" xlink:href="#m33b7749f87" y="118.058823529"/>
     <use style="fill:#bf00bf;stroke:#bf00bf;stroke-width:0.5;" x="292.574117647" xlink:href="#m33b7749f87" y="109.852941176"/>
     <use style="fill:#bf00bf;stroke:#bf00bf;stroke-width:0.5;" x="303.077647059" xlink:href="#m33b7749f87" y="103.288235294"/>
     <use style="fill:#bf00bf;stroke:#bf00bf;stroke-width:0.5;" x="310.955294118" xlink:href="#m33b7749f87" y="104.929411765"/>
     <use style="fill:#bf00bf;stroke:#bf00bf;stroke-width:0.5;" x="318.832941176" xlink:href="#m33b7749f87" y="103.288235294"/>
     <use style="fill:#bf00bf;stroke:#bf00bf;stroke-width:0.5;" x="300.451764706" xlink:href="#m33b7749f87" y="101.647058824"/>
     <use style="fill:#bf00bf;stroke:#bf00bf;stroke-width:0.5;" x="318.832941176" xlink:href="#m33b7749f87" y="75.3882352941"/>
     <use style="fill:#bf00bf;stroke:#bf00bf;stroke-width:0.5;" x="334.588235294" xlink:href="#m33b7749f87" y="78.6705882353"/>
     <use style="fill:#bf00bf;stroke:#bf00bf;stroke-width:0.5;" x="347.717647059" xlink:href="#m33b7749f87" y="54.0529411765"/>
     <use style="fill:#bf00bf;stroke:#bf00bf;stroke-width:0.5;" x="345.091764706" xlink:href="#m33b7749f87" y="58.9764705882"/>
     <use style="fill:#bf00bf;stroke:#bf00bf;stroke-width:0.5;" x="329.336470588" xlink:href="#m33b7749f87" y="67.1823529412"/>
     <use style="fill:#bf00bf;stroke:#bf00bf;stroke-width:0.5;" x="352.969411765" xlink:href="#m33b7749f87" y="50.7705882353"/>
     <use style="fill:#bf00bf;stroke:#bf00bf;stroke-width:0.5;" x="355.595294118" xlink:href="#m33b7749f87" y="60.6176470588"/>
     <use style="fill:#bf00bf;stroke:#bf00bf;stroke-width:0.5;" x="381.854117647" xlink:href="#m33b7749f87" y="44.2058823529"/>
     <use style="fill:#bf00bf;stroke:#bf00bf;stroke-width:0.5;" x="352.969411765" xlink:href="#m33b7749f87" y="42.5647058824"/>
     <use style="fill:#bf00bf;stroke:#bf00bf;stroke-width:0.5;" x="195.416470588" xlink:href="#m33b7749f87" y="236.223529412"/>
     <use style="fill:#bf00bf;stroke:#bf00bf;stroke-width:0.5;" x="182.287058824" xlink:href="#m33b7749f87" y="237.864705882"/>
     <use style="fill:#bf00bf;stroke:#bf00bf;stroke-width:0.5;" x="203.294117647" xlink:href="#m33b7749f87" y="218.170588235"/>
     <use style="fill:#bf00bf;stroke:#bf00bf;stroke-width:0.5;" x="242.682352941" xlink:href="#m33b7749f87" y="208.323529412"/>
     <use style="fill:#bf00bf;stroke:#bf00bf;stroke-width:0.5;" x="234.804705882" xlink:href="#m33b7749f87" y="201.758823529"/>
     <use style="fill:#bf00bf;stroke:#bf00bf;stroke-width:0.5;" x="253.185882353" xlink:href="#m33b7749f87" y="190.270588235"/>
     <use style="fill:#bf00bf;stroke:#bf00bf;stroke-width:0.5;" x="276.818823529" xlink:href="#m33b7749f87" y="188.629411765"/>
     <use style="fill:#bf00bf;stroke:#bf00bf;stroke-width:0.5;" x="261.063529412" xlink:href="#m33b7749f87" y="191.911764706"/>
     <use style="fill:#bf00bf;stroke:#bf00bf;stroke-width:0.5;" x="287.322352941" xlink:href="#m33b7749f87" y="185.347058824"/>
     <use style="fill:#bf00bf;stroke:#bf00bf;stroke-width:0.5;" x="282.070588235" xlink:href="#m33b7749f87" y="178.782352941"/>
     <use style="fill:#bf00bf;stroke:#bf00bf;stroke-width:0.5;" x="263.689411765" xlink:href="#m33b7749f87" y="167.294117647"/>
     <use style="fill:#bf00bf;stroke:#bf00bf;stroke-width:0.5;" x="295.2" xlink:href="#m33b7749f87" y="165.652941176"/>
     <use style="fill:#bf00bf;stroke:#bf00bf;stroke-width:0.5;" x="308.329411765" xlink:href="#m33b7749f87" y="170.576470588"/>
     <use style="fill:#bf00bf;stroke:#bf00bf;stroke-width:0.5;" x="310.955294118" xlink:href="#m33b7749f87" y="170.576470588"/>
     <use style="fill:#bf00bf;stroke:#bf00bf;stroke-width:0.5;" x="297.825882353" xlink:href="#m33b7749f87" y="170.576470588"/>
     <use style="fill:#bf00bf;stroke:#bf00bf;stroke-width:0.5;" x="297.825882353" xlink:href="#m33b7749f87" y="167.294117647"/>
     <use style="fill:#bf00bf;stroke:#bf00bf;stroke-width:0.5;" x="300.451764706" xlink:href="#m33b7749f87" y="168.935294118"/>
     <use style="fill:#bf00bf;stroke:#bf00bf;stroke-width:0.5;" x="308.329411765" xlink:href="#m33b7749f87" y="172.217647059"/>
     <use style="fill:#bf00bf;stroke:#bf00bf;stroke-width:0.5;" x="316.207058824" xlink:href="#m33b7749f87" y="155.805882353"/>
     <use style="fill:#bf00bf;stroke:#bf00bf;stroke-width:0.5;" x="321.458823529" xlink:href="#m33b7749f87" y="157.447058824"/>
     <use style="fill:#bf00bf;stroke:#bf00bf;stroke-width:0.5;" x="316.207058824" xlink:href="#m33b7749f87" y="141.035294118"/>
     <use style="fill:#bf00bf;stroke:#bf00bf;stroke-width:0.5;" x="318.832941176" xlink:href="#m33b7749f87" y="134.470588235"/>
     <use style="fill:#bf00bf;stroke:#bf00bf;stroke-width:0.5;" x="326.710588235" xlink:href="#m33b7749f87" y="157.447058824"/>
     <use style="fill:#bf00bf;stroke:#bf00bf;stroke-width:0.5;" x="308.329411765" xlink:href="#m33b7749f87" y="142.676470588"/>
     <use style="fill:#bf00bf;stroke:#bf00bf;stroke-width:0.5;" x="331.962352941" xlink:href="#m33b7749f87" y="139.394117647"/>
     <use style="fill:#bf00bf;stroke:#bf00bf;stroke-width:0.5;" x="368.724705882" xlink:href="#m33b7749f87" y="114.776470588"/>
     <use style="fill:#bf00bf;stroke:#bf00bf;stroke-width:0.5;" x="352.969411765" xlink:href="#m33b7749f87" y="132.829411765"/>
     <use style="fill:#bf00bf;stroke:#bf00bf;stroke-width:0.5;" x="347.717647059" xlink:href="#m33b7749f87" y="136.111764706"/>
     <use style="fill:#bf00bf;stroke:#bf00bf;stroke-width:0.5;" x="352.969411765" xlink:href="#m33b7749f87" y="127.905882353"/>
     <use style="fill:#bf00bf;stroke:#bf00bf;stroke-width:0.5;" x="324.084705882" xlink:href="#m33b7749f87" y="124.623529412"/>
     <use style="fill:#bf00bf;stroke:#bf00bf;stroke-width:0.5;" x="321.458823529" xlink:href="#m33b7749f87" y="150.882352941"/>
     <use style="fill:#bf00bf;stroke:#bf00bf;stroke-width:0.5;" x="339.84" xlink:href="#m33b7749f87" y="124.623529412"/>
     <use style="fill:#bf00bf;stroke:#bf00bf;stroke-width:0.5;" x="379.228235294" xlink:href="#m33b7749f87" y="145.958823529"/>
     <use style="fill:#bf00bf;stroke:#bf00bf;stroke-width:0.5;" x="360.847058824" xlink:href="#m33b7749f87" y="121.341176471"/>
     <use style="fill:#bf00bf;stroke:#bf00bf;stroke-width:0.5;" x="368.724705882" xlink:href="#m33b7749f87" y="114.776470588"/>
     <use style="fill:#bf00bf;stroke:#bf00bf;stroke-width:0.5;" x="379.228235294" xlink:href="#m33b7749f87" y="98.3647058824"/>
     <use style="fill:#bf00bf;stroke:#bf00bf;stroke-width:0.5;" x="376.602352941" xlink:href="#m33b7749f87" y="103.288235294"/>
     <use style="fill:#bf00bf;stroke:#bf00bf;stroke-width:0.5;" x="410.738823529" xlink:href="#m33b7749f87" y="103.288235294"/>
     <use style="fill:#bf00bf;stroke:#bf00bf;stroke-width:0.5;" x="379.228235294" xlink:href="#m33b7749f87" y="106.570588235"/>
     <use style="fill:#bf00bf;stroke:#bf00bf;stroke-width:0.5;" x="392.357647059" xlink:href="#m33b7749f87" y="91.8"/>
     <use style="fill:#bf00bf;stroke:#bf00bf;stroke-width:0.5;" x="360.847058824" xlink:href="#m33b7749f87" y="101.647058824"/>
     <use style="fill:#bf00bf;stroke:#bf00bf;stroke-width:0.5;" x="400.235294118" xlink:href="#m33b7749f87" y="81.9529411765"/>
     <use style="fill:#bf00bf;stroke:#bf00bf;stroke-width:0.5;" x="400.235294118" xlink:href="#m33b7749f87" y="81.9529411765"/>
     <use style="fill:#bf00bf;stroke:#bf00bf;stroke-width:0.5;" x="373.976470588" xlink:href="#m33b7749f87" y="109.852941176"/>
     <use style="fill:#bf00bf;stroke:#bf00bf;stroke-width:0.5;" x="423.868235294" xlink:href="#m33b7749f87" y="68.8235294118"/>
     <use style="fill:#bf00bf;stroke:#bf00bf;stroke-width:0.5;" x="413.364705882" xlink:href="#m33b7749f87" y="90.1588235294"/>
     <use style="fill:#bf00bf;stroke:#bf00bf;stroke-width:0.5;" x="389.731764706" xlink:href="#m33b7749f87" y="75.3882352941"/>
     <use style="fill:#bf00bf;stroke:#bf00bf;stroke-width:0.5;" x="392.357647059" xlink:href="#m33b7749f87" y="77.0294117647"/>
     <use style="fill:#bf00bf;stroke:#bf00bf;stroke-width:0.5;" x="392.357647059" xlink:href="#m33b7749f87" y="72.1058823529"/>
     <use style="fill:#bf00bf;stroke:#bf00bf;stroke-width:0.5;" x="471.134117647" xlink:href="#m33b7749f87" y="50.7705882353"/>
    </g>
   </g>
   <g id="patch_3">
    <path d="M 72 315 
L 518.4 315 
" style="fill:none;stroke:#000000;stroke-linecap:square;stroke-linejoin:miter;stroke-width:0.5;"/>
   </g>
   <g id="patch_4">
    <path d="M 72 315 
L 72 36 
" style="fill:none;stroke:#000000;stroke-linecap:square;stroke-linejoin:miter;stroke-width:0.5;"/>
   </g>
   <g id="matplotlib.axis_1">
    <g id="xtick_1">
     <g id="line2d_3">
      <defs>
       <path d="M 0 0 
L 0 -5 
" id="m4e12a6c0f6" style="stroke:#000000;stroke-width:0.5;"/>
      </defs>
      <g>
       <use style="stroke:#000000;stroke-width:0.5;" x="98.2588235294" xlink:href="#m4e12a6c0f6" y="315.0"/>
      </g>
     </g>
     <g id="text_1">
      <!-- 6 -->
      <defs>
       <path d="M 33.015625 40.375 
Q 26.375 40.375 22.484375 35.828125 
Q 18.609375 31.296875 18.609375 23.390625 
Q 18.609375 15.53125 22.484375 10.953125 
Q 26.375 6.390625 33.015625 6.390625 
Q 39.65625 6.390625 43.53125 10.953125 
Q 47.40625 15.53125 47.40625 23.390625 
Q 47.40625 31.296875 43.53125 35.828125 
Q 39.65625 40.375 33.015625 40.375 
M 52.59375 71.296875 
L 52.59375 62.3125 
Q 48.875 64.0625 45.09375 64.984375 
Q 41.3125 65.921875 37.59375 65.921875 
Q 27.828125 65.921875 22.671875 59.328125 
Q 17.53125 52.734375 16.796875 39.40625 
Q 19.671875 43.65625 24.015625 45.921875 
Q 28.375 48.1875 33.59375 48.1875 
Q 44.578125 48.1875 50.953125 41.515625 
Q 57.328125 34.859375 57.328125 23.390625 
Q 57.328125 12.15625 50.6875 5.359375 
Q 44.046875 -1.421875 33.015625 -1.421875 
Q 20.359375 -1.421875 13.671875 8.265625 
Q 6.984375 17.96875 6.984375 36.375 
Q 6.984375 53.65625 15.1875 63.9375 
Q 23.390625 74.21875 37.203125 74.21875 
Q 40.921875 74.21875 44.703125 73.484375 
Q 48.484375 72.75 52.59375 71.296875 
" id="BitstreamVeraSans-Roman-36"/>
      </defs>
      <g transform="translate(96.0319485294 324.31890625)scale(0.07 -0.07)">
       <use xlink:href="#BitstreamVeraSans-Roman-36"/>
      </g>
     </g>
    </g>
    <g id="xtick_2">
     <g id="line2d_4">
      <g>
       <use style="stroke:#000000;stroke-width:0.5;" x="150.776470588" xlink:href="#m4e12a6c0f6" y="315.0"/>
      </g>
     </g>
     <g id="text_2">
      <!-- 8 -->
      <defs>
       <path d="M 31.78125 34.625 
Q 24.75 34.625 20.71875 30.859375 
Q 16.703125 27.09375 16.703125 20.515625 
Q 16.703125 13.921875 20.71875 10.15625 
Q 24.75 6.390625 31.78125 6.390625 
Q 38.8125 6.390625 42.859375 10.171875 
Q 46.921875 13.96875 46.921875 20.515625 
Q 46.921875 27.09375 42.890625 30.859375 
Q 38.875 34.625 31.78125 34.625 
M 21.921875 38.8125 
Q 15.578125 40.375 12.03125 44.71875 
Q 8.5 49.078125 8.5 55.328125 
Q 8.5 64.0625 14.71875 69.140625 
Q 20.953125 74.21875 31.78125 74.21875 
Q 42.671875 74.21875 48.875 69.140625 
Q 55.078125 64.0625 55.078125 55.328125 
Q 55.078125 49.078125 51.53125 44.71875 
Q 48 40.375 41.703125 38.8125 
Q 48.828125 37.15625 52.796875 32.3125 
Q 56.78125 27.484375 56.78125 20.515625 
Q 56.78125 9.90625 50.3125 4.234375 
Q 43.84375 -1.421875 31.78125 -1.421875 
Q 19.734375 -1.421875 13.25 4.234375 
Q 6.78125 9.90625 6.78125 20.515625 
Q 6.78125 27.484375 10.78125 32.3125 
Q 14.796875 37.15625 21.921875 38.8125 
M 18.3125 54.390625 
Q 18.3125 48.734375 21.84375 45.5625 
Q 25.390625 42.390625 31.78125 42.390625 
Q 38.140625 42.390625 41.71875 45.5625 
Q 45.3125 48.734375 45.3125 54.390625 
Q 45.3125 60.0625 41.71875 63.234375 
Q 38.140625 66.40625 31.78125 66.40625 
Q 25.390625 66.40625 21.84375 63.234375 
Q 18.3125 60.0625 18.3125 54.390625 
" id="BitstreamVeraSans-Roman-38"/>
      </defs>
      <g transform="translate(148.549595588 324.31890625)scale(0.07 -0.07)">
       <use xlink:href="#BitstreamVeraSans-Roman-38"/>
      </g>
     </g>
    </g>
    <g id="xtick_3">
     <g id="line2d_5">
      <g>
       <use style="stroke:#000000;stroke-width:0.5;" x="203.294117647" xlink:href="#m4e12a6c0f6" y="315.0"/>
      </g>
     </g>
     <g id="text_3">
      <!-- 10 -->
      <defs>
       <path d="M 12.40625 8.296875 
L 28.515625 8.296875 
L 28.515625 63.921875 
L 10.984375 60.40625 
L 10.984375 69.390625 
L 28.421875 72.90625 
L 38.28125 72.90625 
L 38.28125 8.296875 
L 54.390625 8.296875 
L 54.390625 0 
L 12.40625 0 
z
" id="BitstreamVeraSans-Roman-31"/>
       <path d="M 31.78125 66.40625 
Q 24.171875 66.40625 20.328125 58.90625 
Q 16.5 51.421875 16.5 36.375 
Q 16.5 21.390625 20.328125 13.890625 
Q 24.171875 6.390625 31.78125 6.390625 
Q 39.453125 6.390625 43.28125 13.890625 
Q 47.125 21.390625 47.125 36.375 
Q 47.125 51.421875 43.28125 58.90625 
Q 39.453125 66.40625 31.78125 66.40625 
M 31.78125 74.21875 
Q 44.046875 74.21875 50.515625 64.515625 
Q 56.984375 54.828125 56.984375 36.375 
Q 56.984375 17.96875 50.515625 8.265625 
Q 44.046875 -1.421875 31.78125 -1.421875 
Q 19.53125 -1.421875 13.0625 8.265625 
Q 6.59375 17.96875 6.59375 36.375 
Q 6.59375 54.828125 13.0625 64.515625 
Q 19.53125 74.21875 31.78125 74.21875 
" id="BitstreamVeraSans-Roman-30"/>
      </defs>
      <g transform="translate(198.840367647 324.31890625)scale(0.07 -0.07)">
       <use xlink:href="#BitstreamVeraSans-Roman-31"/>
       <use x="63.623046875" xlink:href="#BitstreamVeraSans-Roman-30"/>
      </g>
     </g>
    </g>
    <g id="xtick_4">
     <g id="line2d_6">
      <g>
       <use style="stroke:#000000;stroke-width:0.5;" x="255.811764706" xlink:href="#m4e12a6c0f6" y="315.0"/>
      </g>
     </g>
     <g id="text_4">
      <!-- 12 -->
      <defs>
       <path d="M 19.1875 8.296875 
L 53.609375 8.296875 
L 53.609375 0 
L 7.328125 0 
L 7.328125 8.296875 
Q 12.9375 14.109375 22.625 23.890625 
Q 32.328125 33.6875 34.8125 36.53125 
Q 39.546875 41.84375 41.421875 45.53125 
Q 43.3125 49.21875 43.3125 52.78125 
Q 43.3125 58.59375 39.234375 62.25 
Q 35.15625 65.921875 28.609375 65.921875 
Q 23.96875 65.921875 18.8125 64.3125 
Q 13.671875 62.703125 7.8125 59.421875 
L 7.8125 69.390625 
Q 13.765625 71.78125 18.9375 73 
Q 24.125 74.21875 28.421875 74.21875 
Q 39.75 74.21875 46.484375 68.546875 
Q 53.21875 62.890625 53.21875 53.421875 
Q 53.21875 48.921875 51.53125 44.890625 
Q 49.859375 40.875 45.40625 35.40625 
Q 44.1875 33.984375 37.640625 27.21875 
Q 31.109375 20.453125 19.1875 8.296875 
" id="BitstreamVeraSans-Roman-32"/>
      </defs>
      <g transform="translate(251.358014706 324.31890625)scale(0.07 -0.07)">
       <use xlink:href="#BitstreamVeraSans-Roman-31"/>
       <use x="63.623046875" xlink:href="#BitstreamVeraSans-Roman-32"/>
      </g>
     </g>
    </g>
    <g id="xtick_5">
     <g id="line2d_7">
      <g>
       <use style="stroke:#000000;stroke-width:0.5;" x="308.329411765" xlink:href="#m4e12a6c0f6" y="315.0"/>
      </g>
     </g>
     <g id="text_5">
      <!-- 14 -->
      <defs>
       <path d="M 37.796875 64.3125 
L 12.890625 25.390625 
L 37.796875 25.390625 
z
M 35.203125 72.90625 
L 47.609375 72.90625 
L 47.609375 25.390625 
L 58.015625 25.390625 
L 58.015625 17.1875 
L 47.609375 17.1875 
L 47.609375 0 
L 37.796875 0 
L 37.796875 17.1875 
L 4.890625 17.1875 
L 4.890625 26.703125 
z
" id="BitstreamVeraSans-Roman-34"/>
      </defs>
      <g transform="translate(303.875661765 324.31890625)scale(0.07 -0.07)">
       <use xlink:href="#BitstreamVeraSans-Roman-31"/>
       <use x="63.623046875" xlink:href="#BitstreamVeraSans-Roman-34"/>
      </g>
     </g>
    </g>
    <g id="xtick_6">
     <g id="line2d_8">
      <g>
       <use style="stroke:#000000;stroke-width:0.5;" x="360.847058824" xlink:href="#m4e12a6c0f6" y="315.0"/>
      </g>
     </g>
     <g id="text_6">
      <!-- 16 -->
      <g transform="translate(356.393308824 324.31890625)scale(0.07 -0.07)">
       <use xlink:href="#BitstreamVeraSans-Roman-31"/>
       <use x="63.623046875" xlink:href="#BitstreamVeraSans-Roman-36"/>
      </g>
     </g>
    </g>
    <g id="xtick_7">
     <g id="line2d_9">
      <g>
       <use style="stroke:#000000;stroke-width:0.5;" x="413.364705882" xlink:href="#m4e12a6c0f6" y="315.0"/>
      </g>
     </g>
     <g id="text_7">
      <!-- 18 -->
      <g transform="translate(408.910955882 324.31890625)scale(0.07 -0.07)">
       <use xlink:href="#BitstreamVeraSans-Roman-31"/>
       <use x="63.623046875" xlink:href="#BitstreamVeraSans-Roman-38"/>
      </g>
     </g>
    </g>
    <g id="xtick_8">
     <g id="line2d_10">
      <g>
       <use style="stroke:#000000;stroke-width:0.5;" x="465.882352941" xlink:href="#m4e12a6c0f6" y="315.0"/>
      </g>
     </g>
     <g id="text_8">
      <!-- 20 -->
      <g transform="translate(461.428602941 324.31890625)scale(0.07 -0.07)">
       <use xlink:href="#BitstreamVeraSans-Roman-32"/>
       <use x="63.623046875" xlink:href="#BitstreamVeraSans-Roman-30"/>
      </g>
     </g>
    </g>
    <g id="xtick_9">
     <g id="line2d_11">
      <g>
       <use style="stroke:#000000;stroke-width:0.5;" x="518.4" xlink:href="#m4e12a6c0f6" y="315.0"/>
      </g>
     </g>
     <g id="text_9">
      <!-- 22 -->
      <g transform="translate(513.94625 324.31890625)scale(0.07 -0.07)">
       <use xlink:href="#BitstreamVeraSans-Roman-32"/>
       <use x="63.623046875" xlink:href="#BitstreamVeraSans-Roman-32"/>
      </g>
     </g>
    </g>
    <g id="text_10">
     <!-- Rear Width (mm) -->
     <defs>
      <path d="M 45.40625 46.390625 
L 45.40625 75.984375 
L 54.390625 75.984375 
L 54.390625 0 
L 45.40625 0 
L 45.40625 8.203125 
Q 42.578125 3.328125 38.25 0.953125 
Q 33.9375 -1.421875 27.875 -1.421875 
Q 17.96875 -1.421875 11.734375 6.484375 
Q 5.515625 14.40625 5.515625 27.296875 
Q 5.515625 40.1875 11.734375 48.09375 
Q 17.96875 56 27.875 56 
Q 33.9375 56 38.25 53.625 
Q 42.578125 51.265625 45.40625 46.390625 
M 14.796875 27.296875 
Q 14.796875 17.390625 18.875 11.75 
Q 22.953125 6.109375 30.078125 6.109375 
Q 37.203125 6.109375 41.296875 11.75 
Q 45.40625 17.390625 45.40625 27.296875 
Q 45.40625 37.203125 41.296875 42.84375 
Q 37.203125 48.484375 30.078125 48.484375 
Q 22.953125 48.484375 18.875 42.84375 
Q 14.796875 37.203125 14.796875 27.296875 
" id="BitstreamVeraSans-Roman-64"/>
      <path d="M 41.109375 46.296875 
Q 39.59375 47.171875 37.8125 47.578125 
Q 36.03125 48 33.890625 48 
Q 26.265625 48 22.1875 43.046875 
Q 18.109375 38.09375 18.109375 28.8125 
L 18.109375 0 
L 9.078125 0 
L 9.078125 54.6875 
L 18.109375 54.6875 
L 18.109375 46.1875 
Q 20.953125 51.171875 25.484375 53.578125 
Q 30.03125 56 36.53125 56 
Q 37.453125 56 38.578125 55.875 
Q 39.703125 55.765625 41.0625 55.515625 
z
" id="BitstreamVeraSans-Roman-72"/>
      <path d="M 52 44.1875 
Q 55.375 50.25 60.0625 53.125 
Q 64.75 56 71.09375 56 
Q 79.640625 56 84.28125 50.015625 
Q 88.921875 44.046875 88.921875 33.015625 
L 88.921875 0 
L 79.890625 0 
L 79.890625 32.71875 
Q 79.890625 40.578125 77.09375 44.375 
Q 74.3125 48.1875 68.609375 48.1875 
Q 61.625 48.1875 57.5625 43.546875 
Q 53.515625 38.921875 53.515625 30.90625 
L 53.515625 0 
L 44.484375 0 
L 44.484375 32.71875 
Q 44.484375 40.625 41.703125 44.40625 
Q 38.921875 48.1875 33.109375 48.1875 
Q 26.21875 48.1875 22.15625 43.53125 
Q 18.109375 38.875 18.109375 30.90625 
L 18.109375 0 
L 9.078125 0 
L 9.078125 54.6875 
L 18.109375 54.6875 
L 18.109375 46.1875 
Q 21.1875 51.21875 25.484375 53.609375 
Q 29.78125 56 35.6875 56 
Q 41.65625 56 45.828125 52.96875 
Q 50 49.953125 52 44.1875 
" id="BitstreamVeraSans-Roman-6d"/>
      <path d="M 54.890625 33.015625 
L 54.890625 0 
L 45.90625 0 
L 45.90625 32.71875 
Q 45.90625 40.484375 42.875 44.328125 
Q 39.84375 48.1875 33.796875 48.1875 
Q 26.515625 48.1875 22.3125 43.546875 
Q 18.109375 38.921875 18.109375 30.90625 
L 18.109375 0 
L 9.078125 0 
L 9.078125 75.984375 
L 18.109375 75.984375 
L 18.109375 46.1875 
Q 21.34375 51.125 25.703125 53.5625 
Q 30.078125 56 35.796875 56 
Q 45.21875 56 50.046875 50.171875 
Q 54.890625 44.34375 54.890625 33.015625 
" id="BitstreamVeraSans-Roman-68"/>
      <path d="M 31 75.875 
Q 24.46875 64.65625 21.28125 53.65625 
Q 18.109375 42.671875 18.109375 31.390625 
Q 18.109375 20.125 21.3125 9.0625 
Q 24.515625 -2 31 -13.1875 
L 23.1875 -13.1875 
Q 15.875 -1.703125 12.234375 9.375 
Q 8.59375 20.453125 8.59375 31.390625 
Q 8.59375 42.28125 12.203125 53.3125 
Q 15.828125 64.359375 23.1875 75.875 
z
" id="BitstreamVeraSans-Roman-28"/>
      <path d="M 44.390625 34.1875 
Q 47.5625 33.109375 50.5625 29.59375 
Q 53.5625 26.078125 56.59375 19.921875 
L 66.609375 0 
L 56 0 
L 46.6875 18.703125 
Q 43.0625 26.03125 39.671875 28.421875 
Q 36.28125 30.8125 30.421875 30.8125 
L 19.671875 30.8125 
L 19.671875 0 
L 9.8125 0 
L 9.8125 72.90625 
L 32.078125 72.90625 
Q 44.578125 72.90625 50.734375 67.671875 
Q 56.890625 62.453125 56.890625 51.90625 
Q 56.890625 45.015625 53.6875 40.46875 
Q 50.484375 35.9375 44.390625 34.1875 
M 19.671875 64.796875 
L 19.671875 38.921875 
L 32.078125 38.921875 
Q 39.203125 38.921875 42.84375 42.21875 
Q 46.484375 45.515625 46.484375 51.90625 
Q 46.484375 58.296875 42.84375 61.546875 
Q 39.203125 64.796875 32.078125 64.796875 
z
" id="BitstreamVeraSans-Roman-52"/>
      <path d="M 3.328125 72.90625 
L 13.28125 72.90625 
L 28.609375 11.28125 
L 43.890625 72.90625 
L 54.984375 72.90625 
L 70.3125 11.28125 
L 85.59375 72.90625 
L 95.609375 72.90625 
L 77.296875 0 
L 64.890625 0 
L 49.515625 63.28125 
L 33.984375 0 
L 21.578125 0 
z
" id="BitstreamVeraSans-Roman-57"/>
      <path d="M 56.203125 29.59375 
L 56.203125 25.203125 
L 14.890625 25.203125 
Q 15.484375 15.921875 20.484375 11.0625 
Q 25.484375 6.203125 34.421875 6.203125 
Q 39.59375 6.203125 44.453125 7.46875 
Q 49.3125 8.734375 54.109375 11.28125 
L 54.109375 2.78125 
Q 49.265625 0.734375 44.1875 -0.34375 
Q 39.109375 -1.421875 33.890625 -1.421875 
Q 20.796875 -1.421875 13.15625 6.1875 
Q 5.515625 13.8125 5.515625 26.8125 
Q 5.515625 40.234375 12.765625 48.109375 
Q 20.015625 56 32.328125 56 
Q 43.359375 56 49.78125 48.890625 
Q 56.203125 41.796875 56.203125 29.59375 
M 47.21875 32.234375 
Q 47.125 39.59375 43.09375 43.984375 
Q 39.0625 48.390625 32.421875 48.390625 
Q 24.90625 48.390625 20.390625 44.140625 
Q 15.875 39.890625 15.1875 32.171875 
z
" id="BitstreamVeraSans-Roman-65"/>
      <path d="M 18.3125 70.21875 
L 18.3125 54.6875 
L 36.8125 54.6875 
L 36.8125 47.703125 
L 18.3125 47.703125 
L 18.3125 18.015625 
Q 18.3125 11.328125 20.140625 9.421875 
Q 21.96875 7.515625 27.59375 7.515625 
L 36.8125 7.515625 
L 36.8125 0 
L 27.59375 0 
Q 17.1875 0 13.234375 3.875 
Q 9.28125 7.765625 9.28125 18.015625 
L 9.28125 47.703125 
L 2.6875 47.703125 
L 2.6875 54.6875 
L 9.28125 54.6875 
L 9.28125 70.21875 
z
" id="BitstreamVeraSans-Roman-74"/>
      <path d="M 9.421875 54.6875 
L 18.40625 54.6875 
L 18.40625 0 
L 9.421875 0 
z
M 9.421875 75.984375 
L 18.40625 75.984375 
L 18.40625 64.59375 
L 9.421875 64.59375 
z
" id="BitstreamVeraSans-Roman-69"/>
      <path d="M 34.28125 27.484375 
Q 23.390625 27.484375 19.1875 25 
Q 14.984375 22.515625 14.984375 16.5 
Q 14.984375 11.71875 18.140625 8.90625 
Q 21.296875 6.109375 26.703125 6.109375 
Q 34.1875 6.109375 38.703125 11.40625 
Q 43.21875 16.703125 43.21875 25.484375 
L 43.21875 27.484375 
z
M 52.203125 31.203125 
L 52.203125 0 
L 43.21875 0 
L 43.21875 8.296875 
Q 40.140625 3.328125 35.546875 0.953125 
Q 30.953125 -1.421875 24.3125 -1.421875 
Q 15.921875 -1.421875 10.953125 3.296875 
Q 6 8.015625 6 15.921875 
Q 6 25.140625 12.171875 29.828125 
Q 18.359375 34.515625 30.609375 34.515625 
L 43.21875 34.515625 
L 43.21875 35.40625 
Q 43.21875 41.609375 39.140625 45 
Q 35.0625 48.390625 27.6875 48.390625 
Q 23 48.390625 18.546875 47.265625 
Q 14.109375 46.140625 10.015625 43.890625 
L 10.015625 52.203125 
Q 14.9375 54.109375 19.578125 55.046875 
Q 24.21875 56 28.609375 56 
Q 40.484375 56 46.34375 49.84375 
Q 52.203125 43.703125 52.203125 31.203125 
" id="BitstreamVeraSans-Roman-61"/>
      <path d="M 8.015625 75.875 
L 15.828125 75.875 
Q 23.140625 64.359375 26.78125 53.3125 
Q 30.421875 42.28125 30.421875 31.390625 
Q 30.421875 20.453125 26.78125 9.375 
Q 23.140625 -1.703125 15.828125 -13.1875 
L 8.015625 -13.1875 
Q 14.5 -2 17.703125 9.0625 
Q 20.90625 20.125 20.90625 31.390625 
Q 20.90625 42.671875 17.703125 53.65625 
Q 14.5 64.65625 8.015625 75.875 
" id="BitstreamVeraSans-Roman-29"/>
      <path id="BitstreamVeraSans-Roman-20"/>
     </defs>
     <g transform="translate(252.078125 338.373125)scale(0.1 -0.1)">
      <use xlink:href="#BitstreamVeraSans-Roman-52"/>
      <use x="69.419921875" xlink:href="#BitstreamVeraSans-Roman-65"/>
      <use x="130.943359375" xlink:href="#BitstreamVeraSans-Roman-61"/>
      <use x="192.22265625" xlink:href="#BitstreamVeraSans-Roman-72"/>
      <use x="233.3359375" xlink:href="#BitstreamVeraSans-Roman-20"/>
      <use x="265.123046875" xlink:href="#BitstreamVeraSans-Roman-57"/>
      <use x="363.96875" xlink:href="#BitstreamVeraSans-Roman-69"/>
      <use x="391.751953125" xlink:href="#BitstreamVeraSans-Roman-64"/>
      <use x="455.228515625" xlink:href="#BitstreamVeraSans-Roman-74"/>
      <use x="494.4375" xlink:href="#BitstreamVeraSans-Roman-68"/>
      <use x="557.81640625" xlink:href="#BitstreamVeraSans-Roman-20"/>
      <use x="589.603515625" xlink:href="#BitstreamVeraSans-Roman-28"/>
      <use x="628.6171875" xlink:href="#BitstreamVeraSans-Roman-6d"/>
      <use x="726.029296875" xlink:href="#BitstreamVeraSans-Roman-6d"/>
      <use x="823.44140625" xlink:href="#BitstreamVeraSans-Roman-29"/>
     </g>
    </g>
   </g>
   <g id="matplotlib.axis_2">
    <g id="ytick_1">
     <g id="line2d_12">
      <defs>
       <path d="M 0 0 
L 5 0 
" id="m2427f5f242" style="stroke:#000000;stroke-width:0.5;"/>
      </defs>
      <g>
       <use style="stroke:#000000;stroke-width:0.5;" x="72.0" xlink:href="#m2427f5f242" y="298.588235294"/>
      </g>
     </g>
     <g id="text_11">
      <!-- 6 -->
      <g transform="translate(63.54625 300.519797794)scale(0.07 -0.07)">
       <use xlink:href="#BitstreamVeraSans-Roman-36"/>
      </g>
     </g>
    </g>
    <g id="ytick_2">
     <g id="line2d_13">
      <g>
       <use style="stroke:#000000;stroke-width:0.5;" x="72.0" xlink:href="#m2427f5f242" y="265.764705882"/>
      </g>
     </g>
     <g id="text_12">
      <!-- 8 -->
      <g transform="translate(63.54625 267.696268382)scale(0.07 -0.07)">
       <use xlink:href="#BitstreamVeraSans-Roman-38"/>
      </g>
     </g>
    </g>
    <g id="ytick_3">
     <g id="line2d_14">
      <g>
       <use style="stroke:#000000;stroke-width:0.5;" x="72.0" xlink:href="#m2427f5f242" y="232.941176471"/>
      </g>
     </g>
     <g id="text_13">
      <!-- 10 -->
      <g transform="translate(59.0925 234.872738971)scale(0.07 -0.07)">
       <use xlink:href="#BitstreamVeraSans-Roman-31"/>
       <use x="63.623046875" xlink:href="#BitstreamVeraSans-Roman-30"/>
      </g>
     </g>
    </g>
    <g id="ytick_4">
     <g id="line2d_15">
      <g>
       <use style="stroke:#000000;stroke-width:0.5;" x="72.0" xlink:href="#m2427f5f242" y="200.117647059"/>
      </g>
     </g>
     <g id="text_14">
      <!-- 12 -->
      <g transform="translate(59.0925 202.049209559)scale(0.07 -0.07)">
       <use xlink:href="#BitstreamVeraSans-Roman-31"/>
       <use x="63.623046875" xlink:href="#BitstreamVeraSans-Roman-32"/>
      </g>
     </g>
    </g>
    <g id="ytick_5">
     <g id="line2d_16">
      <g>
       <use style="stroke:#000000;stroke-width:0.5;" x="72.0" xlink:href="#m2427f5f242" y="167.294117647"/>
      </g>
     </g>
     <g id="text_15">
      <!-- 14 -->
      <g transform="translate(59.0925 169.225680147)scale(0.07 -0.07)">
       <use xlink:href="#BitstreamVeraSans-Roman-31"/>
       <use x="63.623046875" xlink:href="#BitstreamVeraSans-Roman-34"/>
      </g>
     </g>
    </g>
    <g id="ytick_6">
     <g id="line2d_17">
      <g>
       <use style="stroke:#000000;stroke-width:0.5;" x="72.0" xlink:href="#m2427f5f242" y="134.470588235"/>
      </g>
     </g>
     <g id="text_16">
      <!-- 16 -->
      <g transform="translate(59.0925 136.402150735)scale(0.07 -0.07)">
       <use xlink:href="#BitstreamVeraSans-Roman-31"/>
       <use x="63.623046875" xlink:href="#BitstreamVeraSans-Roman-36"/>
      </g>
     </g>
    </g>
    <g id="ytick_7">
     <g id="line2d_18">
      <g>
       <use style="stroke:#000000;stroke-width:0.5;" x="72.0" xlink:href="#m2427f5f242" y="101.647058824"/>
      </g>
     </g>
     <g id="text_17">
      <!-- 18 -->
      <g transform="translate(59.0925 103.578621324)scale(0.07 -0.07)">
       <use xlink:href="#BitstreamVeraSans-Roman-31"/>
       <use x="63.623046875" xlink:href="#BitstreamVeraSans-Roman-38"/>
      </g>
     </g>
    </g>
    <g id="ytick_8">
     <g id="line2d_19">
      <g>
       <use style="stroke:#000000;stroke-width:0.5;" x="72.0" xlink:href="#m2427f5f242" y="68.8235294118"/>
      </g>
     </g>
     <g id="text_18">
      <!-- 20 -->
      <g transform="translate(59.0925 70.7550919118)scale(0.07 -0.07)">
       <use xlink:href="#BitstreamVeraSans-Roman-32"/>
       <use x="63.623046875" xlink:href="#BitstreamVeraSans-Roman-30"/>
      </g>
     </g>
    </g>
    <g id="ytick_9">
     <g id="line2d_20">
      <g>
       <use style="stroke:#000000;stroke-width:0.5;" x="72.0" xlink:href="#m2427f5f242" y="36.0"/>
      </g>
     </g>
     <g id="text_19">
      <!-- 22 -->
      <g transform="translate(59.0925 37.9315625)scale(0.07 -0.07)">
       <use xlink:href="#BitstreamVeraSans-Roman-32"/>
       <use x="63.623046875" xlink:href="#BitstreamVeraSans-Roman-32"/>
      </g>
     </g>
    </g>
    <g id="text_20">
     <!-- Body Depth (mm) -->
     <defs>
      <path d="M 19.671875 34.8125 
L 19.671875 8.109375 
L 35.5 8.109375 
Q 43.453125 8.109375 47.28125 11.40625 
Q 51.125 14.703125 51.125 21.484375 
Q 51.125 28.328125 47.28125 31.5625 
Q 43.453125 34.8125 35.5 34.8125 
z
M 19.671875 64.796875 
L 19.671875 42.828125 
L 34.28125 42.828125 
Q 41.5 42.828125 45.03125 45.53125 
Q 48.578125 48.25 48.578125 53.8125 
Q 48.578125 59.328125 45.03125 62.0625 
Q 41.5 64.796875 34.28125 64.796875 
z
M 9.8125 72.90625 
L 35.015625 72.90625 
Q 46.296875 72.90625 52.390625 68.21875 
Q 58.5 63.53125 58.5 54.890625 
Q 58.5 48.1875 55.375 44.234375 
Q 52.25 40.28125 46.1875 39.3125 
Q 53.46875 37.75 57.5 32.78125 
Q 61.53125 27.828125 61.53125 20.40625 
Q 61.53125 10.640625 54.890625 5.3125 
Q 48.25 0 35.984375 0 
L 9.8125 0 
z
" id="BitstreamVeraSans-Roman-42"/>
      <path d="M 19.671875 64.796875 
L 19.671875 8.109375 
L 31.59375 8.109375 
Q 46.6875 8.109375 53.6875 14.9375 
Q 60.6875 21.78125 60.6875 36.53125 
Q 60.6875 51.171875 53.6875 57.984375 
Q 46.6875 64.796875 31.59375 64.796875 
z
M 9.8125 72.90625 
L 30.078125 72.90625 
Q 51.265625 72.90625 61.171875 64.09375 
Q 71.09375 55.28125 71.09375 36.53125 
Q 71.09375 17.671875 61.125 8.828125 
Q 51.171875 0 30.078125 0 
L 9.8125 0 
z
" id="BitstreamVeraSans-Roman-44"/>
      <path d="M 18.109375 8.203125 
L 18.109375 -20.796875 
L 9.078125 -20.796875 
L 9.078125 54.6875 
L 18.109375 54.6875 
L 18.109375 46.390625 
Q 20.953125 51.265625 25.265625 53.625 
Q 29.59375 56 35.59375 56 
Q 45.5625 56 51.78125 48.09375 
Q 58.015625 40.1875 58.015625 27.296875 
Q 58.015625 14.40625 51.78125 6.484375 
Q 45.5625 -1.421875 35.59375 -1.421875 
Q 29.59375 -1.421875 25.265625 0.953125 
Q 20.953125 3.328125 18.109375 8.203125 
M 48.6875 27.296875 
Q 48.6875 37.203125 44.609375 42.84375 
Q 40.53125 48.484375 33.40625 48.484375 
Q 26.265625 48.484375 22.1875 42.84375 
Q 18.109375 37.203125 18.109375 27.296875 
Q 18.109375 17.390625 22.1875 11.75 
Q 26.265625 6.109375 33.40625 6.109375 
Q 40.53125 6.109375 44.609375 11.75 
Q 48.6875 17.390625 48.6875 27.296875 
" id="BitstreamVeraSans-Roman-70"/>
      <path d="M 30.609375 48.390625 
Q 23.390625 48.390625 19.1875 42.75 
Q 14.984375 37.109375 14.984375 27.296875 
Q 14.984375 17.484375 19.15625 11.84375 
Q 23.34375 6.203125 30.609375 6.203125 
Q 37.796875 6.203125 41.984375 11.859375 
Q 46.1875 17.53125 46.1875 27.296875 
Q 46.1875 37.015625 41.984375 42.703125 
Q 37.796875 48.390625 30.609375 48.390625 
M 30.609375 56 
Q 42.328125 56 49.015625 48.375 
Q 55.71875 40.765625 55.71875 27.296875 
Q 55.71875 13.875 49.015625 6.21875 
Q 42.328125 -1.421875 30.609375 -1.421875 
Q 18.84375 -1.421875 12.171875 6.21875 
Q 5.515625 13.875 5.515625 27.296875 
Q 5.515625 40.765625 12.171875 48.375 
Q 18.84375 56 30.609375 56 
" id="BitstreamVeraSans-Roman-6f"/>
      <path d="M 32.171875 -5.078125 
Q 28.375 -14.84375 24.75 -17.8125 
Q 21.140625 -20.796875 15.09375 -20.796875 
L 7.90625 -20.796875 
L 7.90625 -13.28125 
L 13.1875 -13.28125 
Q 16.890625 -13.28125 18.9375 -11.515625 
Q 21 -9.765625 23.484375 -3.21875 
L 25.09375 0.875 
L 2.984375 54.6875 
L 12.5 54.6875 
L 29.59375 11.921875 
L 46.6875 54.6875 
L 56.203125 54.6875 
z
" id="BitstreamVeraSans-Roman-79"/>
     </defs>
     <g transform="translate(52.0128125 220.1734375)rotate(-90.0)scale(0.1 -0.1)">
      <use xlink:href="#BitstreamVeraSans-Roman-42"/>
      <use x="68.603515625" xlink:href="#BitstreamVeraSans-Roman-6f"/>
      <use x="129.78515625" xlink:href="#BitstreamVeraSans-Roman-64"/>
      <use x="193.26171875" xlink:href="#BitstreamVeraSans-Roman-79"/>
      <use x="252.44140625" xlink:href="#BitstreamVeraSans-Roman-20"/>
      <use x="284.228515625" xlink:href="#BitstreamVeraSans-Roman-44"/>
      <use x="361.23046875" xlink:href="#BitstreamVeraSans-Roman-65"/>
      <use x="422.75390625" xlink:href="#BitstreamVeraSans-Roman-70"/>
      <use x="486.23046875" xlink:href="#BitstreamVeraSans-Roman-74"/>
      <use x="525.439453125" xlink:href="#BitstreamVeraSans-Roman-68"/>
      <use x="588.818359375" xlink:href="#BitstreamVeraSans-Roman-20"/>
      <use x="620.60546875" xlink:href="#BitstreamVeraSans-Roman-28"/>
      <use x="659.619140625" xlink:href="#BitstreamVeraSans-Roman-6d"/>
      <use x="757.03125" xlink:href="#BitstreamVeraSans-Roman-6d"/>
      <use x="854.443359375" xlink:href="#BitstreamVeraSans-Roman-29"/>
     </g>
    </g>
   </g>
  </g>
 </g>
</svg>
